<svg height="179.23602mm" viewBox="0 0 239.11858 179.23603" width="239.11858mm" xmlns="http://www.w3.org/2000/svg"><g transform="translate(-29.005434 -78.150314)"><path d="m29.005434 78.150314h239.11858v179.23602h-239.11858z" fill="#eee"/><g stroke="#000" stroke-linecap="round" stroke-linejoin="round"><g stroke-width=".052726"><path d="m74.431823 113.25851-1.899153 1.07445-.382071.38962v.6594l-.352526.62154h-1.091196l-.438108-.44567-.826294.44411h-.843107l-1.014272-.58834-.406015.62-1.514023 1.27159h-.733577l-.534392.38805h-.794708l-.463581.53957v.42749l-.502806.2952h-1.32961l-.329601.33566-.751918.17849v.69675l-.772292 1.25861.419259 1.28144-.706578.7419-.86501.23606-.591449-.4607h-.949574l-.264904.62933-1.213968.60698h-.728485l-.728482.42699-.688749-.19456.01122.0186.581771 1.59272.535409.3144 1.137553 1.94499v.81506l1.783002 1.70374h.581768l1.563947 1.48223h.436579l1.96385.96292.691296.70349 2.182395 1.14865.618446.88922h1.233836l.381561.67239h2.395845l2.211942 1.40075 1.389213-.57637 1.910868.5214 1.458494 1.6524.777899.21269 1.510966 1.80441.885387.24126 1.01784 1.25186h1.105971l3.631716 1.76395 2.229264-.53283-.0051.00053.0021-.007.652578-.66457.399902-1.52063.63475-1.11906.379524-1.44177.177279-1.10141-.463071-.47161.668882-.68067v-2.31283l-.672445-.68534-.98167-.85241v-1.03708l.272544-1.09313-.208357-.79221.408564-1.5782-.476827-.13023v-1.33281l.167601-.37094-.460524-.81142.313809-1.19168-.238413-.42076v-1.03916l-1.870112-.96343-.600108-1.48171-1.063687-1.08326h-.464077l-.609276-.35849h-.900162v-.98418l.95518-.26096.408052-.71958-.326544-.61272-.115641-.4389-1.942451-1.12685-.00051.00051-1.213969 1.45007-.546108-.55668-.563938-.15356-.569541-.58003h-.560881l-.558333-.5686h-.40194l-.450337-.45864-.04228-.16186-.963841-.43165-.607238-.40467z" fill="#b6f2dc"/><path d="m53.527404 80.03733-1.654626 1.407518v1.222825l-1.309232 1.388323h-1.328081l-1.581778.815563h-.782485l-1.127365-1.037611-1.663793.978468-1.128385-.307653-.312791 1.189103-1.005613.418156-1.618455.481454-1.181877 1.66692-1.009686.276003.3296 1.252396-.838011 1.14293v.916729l.360167.393254.720332.942671.23128 1.100386-.340808 1.293901 3.478893 3.86562h.565973l1.131442-.575879.128376 1.676263v2.75018l.385639.36682v.94318l-.256753.26199.153847 3.11697 1.260838 1.78107-.355071.097.869084 1.39612 1.224158.33357v.71388l.408054.7196-.268981 1.97821-.492107.28948v1.04643l.826805.75953 1.36221 2.31493v.88923l.727465.33306.96435.9821h1.109028v.42542l1.625586 2.64902.688749.19456.728482-.42698h.728485l1.213968-.60699.264904-.62933h.949574l.591449.4607.86501-.23606.706578-.74189-.419259-1.28145.772292-1.25861v-.69676l.751918-.17847.329601-.33567h1.32961l.502806-.2952v-.42749l.463581-.53957h.794708l.534392-.38805h.733577l1.514023-1.27159.406015-.62 1.014272.58834h.843107l.826294-.44411.438108.44567h1.091196l.352526-.62154v-.6594l.382071-.38961 1.899153-1.07446.494144.87209.607238.4047.963841.43164.04228.16186.450335.45863h.401941l.558334.56862h.560882l.56954.58001.563938.15358.546108.55668 1.213969-1.45007.000509-.00052v.00052l.439638-.56499v-1.68507l.726955-.25939.473259-.48146 1.1075-.30246-.507391-1.17926.454408-1.09311-.183392-.69884.711162-1.0786 1.618455-.61114.409582.11154 3.30059-1.74163-.122262-.46485.343864-.20129h.378505v-.50065l-.41824-1.20415.854819-2.09286-.655123-1.94498.618956-.685369-.182375-.962894.149772-.568094-.586351-.283749-.131945-.502203-.224655-.06174-.30515-.538-1.318911-.775614v-.696756l-.83801-1.000256.194602-.560829h.0057l-.955178-1.685082-2.68775-1.580278-2.734613-.746043-.825785.225161-.771276-.453436-2.19462.598703-3.650058-.996108-.507391.516728-.533881-.940593h-1.695907l-1.810536-1.843793h-1.610304l-1.203781 1.225937-2.139602-.685859-.654615-1.153824-1.904756-.237095-2.85535-2.963415-2.436601-1.425679-.781972-.96342zm76.029726 28.57839-.88998.52349h-1.05604l-1.2328.72475-.51708-.30401v-.003l-.39176.36887.38614.31025-.92561.94268-.72034-.49753.17626.31077-.12736.48454-.1834-.18675.0825-.31442-.12991-.2293.14265.14527-.1564-.27653-.19869.11673-.15538-.15825h-.58176l.0449.17174.5084.13853v1.48688l.90474.53178-.87926 1.17094 1.88999 1.58445.48242-.49132.57055.5816v.99869l.68519.40258h-.31942v.48613h.27254l-.1839.32477.14162.14371v.90219l.33266.55565.25167.0683v.46903l.27355.48299h.74785l-.1131.43164-.0687.7891v.85189l.67296-.16706 1.55529 1.5839.29089-.29622-.70046-.71336v-.66666l1.12787.48143.30922-.31439-.15436-.27289-.20986.12349v-.38807l.33978-.59923h.40602l-.1941-.73929.39583-.23294-.96539-.5681.61591.16809.29546-.17379v-.42907l.22671-.23034v-.38133l.37391.0534-.14214-.25006-.18544-.18884.62509.17016h.26796l-.0683-.25991-.21395-.2179.24859-.43841.23128-.0632v-.3362l.20734-.36472h.28986v-.57794l.33572-.59249-.18237-.32218v-.6703l.36526.21478.1187.0694.13041.49546.62508.17067v.39845l-.0851.14942.45185-.26513.24096.14165.63118-.37977.3184 1.29131h.0005l-.32094-1.3022.6047-1.06666v-.59974l-.36272-.64073-.84871-.49908-1.2812.75277.53591-.54577-.33929-.34552h-.36372v-.50014l-.59094-.60182.6271-.63914-.18237-.69367.26491-.46743h-2.46513l-.90676-.53334-.60115.35383zm-36.177607 2.0415-.375449.42699h-1.081517l-.389205.4581-.957218.26148-.993385.89909-1.141122.27393-.227204.40052-.640353.35953 3.355098 2.17793h.364243l.42741.75435-.147733.56187.217016.82437h1.145705l.388696.39586.18747-.33047 2.008679 1.24771h.463579l1.144686.67081v.47264l.424354.11568.920539.4768.452884-.15875v1.1284l.528281.49338.158423.60335 1.49569.30819.39277.69313 2.02905.66769.64036-.23812 2.06676.19039v.14371l.24299.42853 2.88539.33412v.28224l.93429.25524.11363.43215 3.49621-.36573 1.46715.57223v-.84254l-.15538-.82541.21803-.8275-.87011-.23397-.35354-.51675.37546-1.14656-.68621-.81918-.17474-.6646-.73457-.5219-.39125.22981h-.63984l-.79472-.58467h-.99338l-.94448-.93904-.50078-.13647.23128-.40829h.24299l-1.23638-1.0677-1.3245-.86537-.48549.16811h-1.30057l-.0718-.27393-1.37902-.37615-1.03415-.60854-1.53949-.71338-.32552.33152h-.805921l-.342342-.34862-.741216.27028-.382582-.22516v-.5188l-2.55122-2.5987-.115132-.43631-.734597-.20027-.485994-.39895h-.536939z" fill="#ece3b4"/><path d="m225.58909 102.51977-.31739.32372.0994.37821-1.45189 1.05992-.87263-.23762v.64541h-1.09172v1.05577l1.10954 1.07391v.29626l1.14571 1.05576-.23638 1.27834-.92767.92555v.9079l-1.05453.25941-1.09118-.22255v.94471l-.74579.50014-1.07288.46278-.12226-.4638.21294-.77717v-.92556l-1.09121-.68586-1.81864.83371h-.39993l-.36372-.57433v-.42592l-.58229-.27809-2.65515-.0924-1.41875-.96292-1.21856-1.00025-1.60012-.55564h-.65513l-1.65462.68534h-1.18187l-1.2919-.48196h-3.58283l-1.12736.77819-.66431-.18158h-.97249l-.27765.49079-.14009 1.0428-.58225.593h-.6363l-.56443.62931v.66719h-.60011l-.29648.52295v.40309l-.76008.53128v1.99066l.38614.3009-.74631 1.75512h-1.17017l-.0643-1.1393h-1.05451l-.27663.2812-.006-.51674-.69435.70713-.55323-.56341-.42945.25265-.29495-.30039-1.02447.57173v-.91673l1.37596-.77301-1.74733-.47627v-.54528h-.81152l-.20581.36371-.9022-.24644-.38106.8716h-.54559v.61115l-.51911.14162v.35851h-.75395l-.41823.85187h-.69081v.46277l-.87315.29624.34844.61477-.62456-.17068-.8319.48978-.25013-.25423-.22618.39948h.19306v.54214l1.22772 2.16654v.51882h-.27303l.16149.61374-.48243.13126.28425.82021v1.91699l-.10851.23139.4748.83788-.93022 2.53176v.8249l2.14776.78599 1.37596 1.30946 1.31125.6812.93941.73361 1.09271 1.03447-1.24759 2.94683-.43963-.12036-.31838.3948.8482.69416.70758.72062-.75903.54994.78452.79897-.21041.37147.21906.22256-.34286.008-1.27101-.34656-.42436.24953.23331.23709.34896.0955.34182.60233-.39276.39999v.89703l.20276.20595h-.89049l-.19766-.2013-.17013.10021v.2096l.2598.0705 1.17269.68949.35866 1.36238-.38768-.10533-.10088.38185-.30566.17952.70709.77871v1.1668l.29804.52555h.31989v1.13203l-.0696.0415v1.40338l-.567.33358-.59349-.34916v.45085l-.12785.48559-.57821.33981.81815 1.82309.53389.31388.2384.24228v.64748l.2924.17224.19257.1961-.2333.13697.11665.44462.35355.0965-.53847.95044-.43607-.25577-.22415.35175.12836.48767-.0938.16499.16556.29208v.36369l.0482.0281.60521.35589.76261-.20753h.99847l1.21805.75643.70353-.4135.76158.20803.77179.77978.65208-.17797 1.89404 1.43711 1.20022.55566v.48195l1.21855.61114.58227.88873 1.9822 1.33333.41671.73464 1.14623.75589h2.1345l.84869 1.07392 1.92922 5.94602.90017.8908 1.27052.74657.8645.56238h1.36323l1.25982.55044.64289.83789-.20786.79221-1.20631 1.14655v1.021l.55018.99977 1.40756.38441 2.59349-.49546 1.33674-1.36082.73612-.26926.9012.24592.33061.58314h.51606l.0162-.0181.75546-1.0511.5782-.079 1.04179.19664 1.04178-.17068.514-.18315-.0622-.23659.0861-.32682-.0785-.3004.21397-.3777v-.99816l-.20429-.7772-.0837-.66303.28275-.28844-.21907-.12868-.0734-.12916-2.06062-.0825h2.28885l.1671-.4192-.0795-.30402-2.85229-2.82592-.11566-.20962h-.74554l-.20633-.12139.75905.095.82324-.22256-.026-.4192.1992-.1167.41772.60127.51504-.14059v.28482l-.38003.2231v.74602l.97097 1.10039 1.43809-.39273-.55016-1.61141-.34744-.35331-1.05451.24849v-.22255l.42435-.18314v-.11828l.44982-.14371.11411-.43267-1.18136-3.1035-1.74886.68116-.10394.18266.21347.81035-.43099.0805-.21854-1.25706 2.13501-.74604.22875-.40416.15689-2.45135h-.46306v-.31441h-.4371l-.51452 1.59794-.18391-.10792.10646-.1878-.14925-.26303.54814-1.40598.25066-.25524v.28172l.86806.11776.56598-.95616.21852-3.37844-.56748.15459h-.28121l-.72033.25111.75904-.35382-.35966-1.36657-.69537-.0737-.52624.30921.0959-.16913.58533-.31023.44983.13073-.14161-1.17925.0775-1.1917.53999-1.19169-.88743-.41868.30872-1.30998 2.34082-1.34891.14417-.25473-.18085-.10584.0658-.11621.19613.0534.4432-1.09571.12023-.0705.14263.0836h.38053l.215.1266.50485-1.00388-.0382-.1183.9832-1.00182.35711-.097.78146-.89129 1.26032-.85189.51402-1.49259-.66837-1.37536.78451-.98209-.19766-.34762 1.27766.97587.43708-.73305.38412-.2257-.1075.69678-.41008.72371.12073.69105.45033.45862-.59553-.35017.32555 1.59427 1.73561 1.70274.9776-.89079-.0366-.13956h.18441l.10394-.18263.12072.21322 4.07746-.29727v1.07445h.10291v1.85941l1.59451-.20962v-1.57145l-.84871.0129.87266-.23813v-.77042h-.35858l.34436-.20183.14927-.56859v.74447l.29446.1733v.82178h-.33777v1.62386l.72035-.0913.13142.23191h1.29549v-.1795l.36016.13074v.65525l-.29547.28793.27101.15928-.16048.28275.648.39636.0388-1.32296.19919-.20338.135-1.5647.59145-.3144 1.06113 1.08014-.19918 4.27651h.51452l1.01582.74606.98981.32736 1.19664.027.76517-.20909.37646.1022.36221-.65316.9134-.37977.33165-.19508.8645-.56445.28273-.52347.25115-.0658.051-.2231.003-.007-.006-.009.17982-.48301.43913-1.24876v-3.00959-1.08376l-.3459-.8519v-.85186l.1182-.70402v-.30509h.002v-.00052l1.14262-.67132 1.39279-.34708 2.01886-.37044.67245-.59299 2.16457-3.20414v-1.11127l-.51605-1.96109-1.90273-1.63216-.72796-1.44487-1.64547-1.67575v-1.43553l.86349-2.09286v-.98156l-.94549-1.51908-1.01836-.3699-.69128-.90792-1.45443-1.92633-.16404-1.25914-.65462-1.03761v-1.05569l.72746-1.05576 2.54612-1.25915.17322-.65888-.36528-.64436-1.28272-.35019-1.49976.59819v-.21014l-1.09272.29834-.8161-.22257-.25219-.95823v-.70199l1.26034-1.21764v-.57588l-.96179-.56447h-.71163l-1.46564.62984-.91288-.24903-.63067 1.30999h-.48856l-1.76211-1.58496-.68721-.86121-1.47939-.40415-1.1574 1.60778-1.4366.62047-.34234-.60284h-.35865l-.75445-.97121.18238-1.73228.59399-1.2576.58533-.59664-.53339-.80515-.5675-.15461-.23687.89908-1.2919.91882-2.48246-.17019-.90526.72219-1.22211.33361-1.54459-.42179-1.4529-.17122-2.10954-2.75951zm3.60522 38.82013-.76468 1.03295.50537.92397.2221.2262.34134-.0929.67905-1.30374zm.80286 2.26926-.70862.4161-.21907 1.08687-1.04126 1.12633.82273 1.03502 1.17066-1.17872.4315.0789v-1.76032zm7.88902 1.71619-4.01887.27758.15995 1.22541 3.85892-.49339zm-4.13554.29158-1.12482.94266.62966.8384.6755-.58938zm-2.04485.39949-.74582.64175.11617 1.49311.3408-.11152.19918.20285-.46307.32736.34744.35331-3.60115 2.98626.5787.69415h.23128l3.20584-2.20647.0739-.28173-.36679-.50427.23791-.24228.67551.75328.21192-.21632.18031.20959-.25725.15719.11564.93023-.21855.32736-3.09937 2.04255-.52725-.72012-.61743.44516 1.95825 2.74603 1.12837-.66355 1.5655 2.21528.79165-1.2498-.5181-1.22749v-1.57146l1.56905-.13074-.24453-2.26614.37289-.18521-.42434-.11623-.15334-1.66588-.18084-.0491-1.23487.94317-.15385-.21012 1.31129-1.13928zm-1.20888.28794-4.32708 3.67364.82934.84461 3.49774-2.94679zm-2.5716.0265-1.0158.82489.84871 1.04747.9898-.85082zm9.87019.20284-.72697.0652-1.99949 1.63733.18643.27444 2.65567-.3398zm-1.36986.17017-2.35966.32737.91288 1.07393 1.44067-1.23113zm-2.54611.38651-.4911.42854.93429 1.12322.5405-.43892zm-7.08616.22258-.71372.52658.19614.74656-.45289-.4612v1.26379l.22466.22934 1.56904-1.29653zm12.24818 1.09622-.81813.0897-.16404.29002.38207 2.94473 2.66432-.42592-.19104 2.70399-2.81866.30558v.53697l4.33727-.60182.2542-3.99117-1.24555-.94423-.59093-.26927-1.71881.25008zm-2.00103.15773-2.15488.23087-.30005.25004.10901 1.14864.65819.57953-.25879.0704-.0188.0715.27458.0748-.14977.15566.0856.3263-.25469.0461v.787l2.95978-.40311.23229-.23555-.20885-1.50971-.755.0648zm-13.05819.50895-1.91851 4.50116.43657.25627.49111-1.05316 1.12735.64851v-2.35229l-.26335.0714v-.18314l-.36731-.0997v-.1686l.46153.12606.37851-1.66327zm-.91799 1.62074-.91851.55563v.65736h.50027zm-.96384.57432-1.17321.58313.70048.31543.44574-.24124zm16.40412.58313-.63629.90741.19105 1.41736 1.02753-.1572-.12737-.7782 1.77281-.24125v-.5738l-1.84566.14838.30922-.7227zm-17.66851.0556-.24555 1.22281.80846.37511.25575-.0694v-1.19481zm1.2919.17637-.35506.50895v.76888h.22718l.49109-1.25034zm22.76944.35175-.28222.31441v.88923l.12786-.74086 1.06368.0836.70047.39846.13653.25006-.1951.34292.3673-.47314-.0545-.30557-.36322-.22205h-.41875l-.79979-.53698zm2.86654.74398-.6658.1821-.51861.8057.53643-.7227.5777.18988-.1829.18574.32961.0903-.0785-.29883.18187-.16706.65463.52814-.20123.67446.3561-.62777-.10954-.23191zm-19.77907.42749-.22006.0601-.59809.35174h-.44982l-.12074.45965.38463.10482.22873-.40261.36831-.21737.46307.91725-2.22468 1.53204v1.06094l.70709 1.02207.6969-.47005.1676.29521-.32246.18936 3.21906 4.61217 1.29141-2.08352-2.68776-4.09389.92717-.54527zm-6.47587.0601-.46308 1.07392-.1095.95408.16405 1.35201 1.13651-.72218.17218-2.28741zm1.50995.63865-.30922.7227-.16405 3.37067h1.38209l.16403-.23139-.18186-3.86198zm19.36849.4633-3.25524.33307.31837 2.99142h.4855l.4427-.25993.3515.3585-.5889.34605 1.19664 1.66019.71321-.41921zm-11.53958 1.21348-.94551.69415 2.14623 3.20466.71831-1.17664zm-8.9746.81451-.75498.44463.53796 1.40284.48037-.28223.073-1.56524zm1.58939 1.92063v.23606h-.23127v-.20959h-.74581l-.20274 3.50035-.71015 1.25396-.10239 2.45966.18595-.10946.24757.25265-.13906.14215.12937.22776-.19306.35331.9898 2.88145.38616.39325h1.59451l.79726-.85189h.20633l.19918-.20285.32144.32737-.28935.29521h-.29599v.40516h3.87116l.77127-.83785-1.91595-1.74163-.25726.36629-1.00308-.60234.79727-.8773-.73306-1.24774-.0642-.24539-.26998-.56289h-.18034l-1.89049-3.11701h-.21856l.39789-.21997-.35917-1.36496-.41823-.19611v-.17693l-.52065-.53072zm12.16567 1.33645-2.76467 1.71516-.86194 1.67626h-.23128l-.77127 1.56782.26999.47574 6.27514-4.24331zm2.23743 1.57093-3.40756 2.23969 1.82629 2.75069 3.04741-2.10892zm-3.83192 2.52814-2.25067 1.54499.0127.13128-.10239.11775.14059.0758.18085-.0497 2.57162 1.78105 1.32449-.89027zm-8.95069 6.53486v.24903h-1.50484l-.0524.78809.22008.83576 1.58128.95617 1.86502-2.69777zm4.8279 1.25034-3.3001.50012-1.6368 2.35229-.17881-.0487-1.04943-1.08119-.96487.79895-.28272 1.80803v1.50557l-.17983.82492.17372.17693 2.06369.51723 3.69083 2.17432.86143-.5764.58076 1.02465.40957-.14684.216.38133 1.63578.67962 1.46156-.85965.94447 1.66536-.91036.92661.3113.31697-.431.43891.62405.63501 6.72039-6.84459-.63831-.64953-.95824.26147-4.41216 4.49285-.85534-1.50922 1.37594-.80879-1.06825-1.88378-.45848-.46693z" fill="#dcb6f2"/><path d="m87.713145 93.367517-.1946.560828.838008 1.000255v.696758l1.318911.775614.30515.538.224655.06174.131945.502203.586352.283788-.149771.568085.182375.962895-.618956.685367.655123 1.94498-.854819 2.09286.418239 1.20415v.50065h-.378504l-.343864.20128.122262.46486-3.300591 1.74163-.40958-.11153-1.618456.61114-.711163 1.07859.183393.69883-.454408 1.09312.507391 1.17926-1.1075.30246-.473259.48146-.726955.25938-.02546 1.66642-.414167.58261 1.942455 1.12738.11564.4389.326543.61271-.408051.71958-.955179.26097v.98417h.900159l.609278.3585h.46409l1.063687 1.08326.600108 1.4817 1.870112.96343v1.03916l.238415.42077-.313809 1.19167.460523.81142-.167602.37095v1.33281l.476827.13022-.408563 1.57821.208357.7922-.272545 1.09313v1.03708l.98167.85241.672446.68533v2.31285l-.668881.68066.463069.47161-.177279 1.10141-.379524 1.44177-.634749 1.11906-.399901 1.52063-.65258.66456-.0021.007.0083-.00053 1.695379 2.99041-.589408 1.56731 2.058091.57639.719826 1.12634 2.751934-.44566.717784-1.26537.276113.16239.607239-.61842 1.716775.43786.360167.57693 1.105969.20907.977079.99507-.352518.62204.327047 2.12867.553251.5629.14417.55046.67396.68585-.71523.7284 1.55577.87783.87419 1.23061v1.30997l2.1177 1.24463v.98159l2.20329.52398.88742.90376 1.22876-.72272 1.63424.4467.49108-1.86665.49467-.13488 2.39277-.65268.54559-.32114 3.30823.82855v.62828l1.4402.78598h2.77738l1.36323-.39273 2.00665.78546 2.39177-.57587.5787.58936 3.40808 1.4532 1.22263-.33311 1.58076 1.38106h1.33776l.79675 1.02153 1.06012.6236v.39793l1.23688-.33723.42945.86123.67552-.18419.3031.53489.92308-.25212v.66094l.77333 1.99064h1.51759l.12837 1.20521.59146 1.41425.82322.65475v.57638l1.31178.3668.4101.72323v.55976l2.13604 2.59353h1.00307l.67244 1.18598h1.01224l.079.29936.52725.93073.18084.68638 2.3653 2.40882-1.05606 1.42982v.4192l2.03161.52399.20581 1.51907.93275 1.64565v1.39246l1.51708.41401 2.51404-.96393-.94754-.25836-.93735-1.65344 1.32756-2.34188.62152-.16913.38614-1.46717-.4605-1.74839.29849-1.13463-.49056-.28899.16607-.1686-.36117-.63762-.49672-.13487-.37695-1.43502.54354-.95979-.11053-.42024v-1.69286l-1.08815-1.91906-.53185.93852-1.08152-.29519-.44268-.78133.51961-1.97406.50535-.29727.67448-2.56395.64595-.37975v.30452l1.04128-.28376.7239-.73775.46715.27445.56342-.33151-.47477 1.8039h-.65819l-.5293 2.00983.65155.66304.0702.26873.28631.0784.32704 1.24254-.10952.41557h.57616l.91748-.93332.18032.10583.51811-.9131.54813-.3227v-.52451l1.2741-.34758.27866-1.05942-.49416.29053-1.17778-1.33229v-.30765l-.65461-.38545-.95264-.25942.19408-1.74424-.47783.12971-1.35917-.83372-.62761-.63916-.0984-.37459-.63526.17277.17066-.30143h-.48293l-.30668-1.16627h-.94804l-.54865-.55876v-.48508l-.96231-.97951v-.70609l-3.12688 1.53776v-1.07444l-.97302-.99094 1.08203-1.88016h.47327l1.40041-1.42566.14367-.54786h.34741l.54561.45498v.37043l.92768.70349h1.41824v1.8895l.51148-.30091.34896.6153.96127.97898h.65158l.31736.55981.1773.67496.92102-.54163.84211.22983.72591-.19766-1.58737-2.80104.39991-.40725 2.2593-1.73645 1.40093-.0186 1.02295-.60182.29599-1.12685 1.55425-.80882-.63219-1.35564.48039-.28275.53541-1.18441 1.26032.18362 3.90274 1.5279.37036.65213h1.90322l1.00053.40311.89098 1.01945-.14825.56344h.62101l1.65512 1.39973 2.25473.35176 1.06012.62255v-.36317l-.16607-.29209.0938-.1655-.12786-.48767.22363-.35175.43608.25631.53899-.95098-.35407-.0965-.11666-.44411.23331-.13695-.19255-.1961-.29242-.17224v-.6475l-.23841-.24227-.53389-.3144-.81813-1.82308.57819-.33982.12788-.4856v-.45031l.59348.34863.56701-.33309v-1.40335l.0696-.0415v-1.13204h-.3194l-.29855-.52554v-1.16732l-.70709-.77821.30566-.1795.10087-.38237.38768.10586-.35813-1.36239-1.17322-.6895-.25979-.0709v-.20909l.17014-.1002.19766.20129h.89047l-.20224-.20595v-.89754l.39229-.39948-.34185-.60286-.34896-.0951-.2328-.2371.42435-.25006 1.27051.34709.34284-.008-.21905-.22257.2104-.37144-.78453-.79898.75906-.54992-.70709-.72063-.8487-.69416.31839-.3948.43962.11983 1.2476-2.94681-1.09274-1.03398-.93887-.73361-1.31176-.68116-1.37597-1.30947-2.14775-.786v-.8254l.93022-2.53177-.4748-.83788.10852-.23088v-1.91752l-.28428-.81969.48245-.13178-.1615-.61322h.27305v-.5188l-1.22771-2.16706v-.54162h-.19309l-.006.009h-.28325v.54164h-.89098l-.56395.42645v.72219h-1.21854v.37042l-.64392.17589v-.37976h-.6653l.60009-1.42621v-4.07471l-2.45545 1.18546-2.18749.59664h-.86755l-1.52779.75539 1.52779-1.87032h.8543l.58229-.42644h.80031l2.38209-1.81479.18237-.61116v-1.72295l-1.56444-.759.76361-.79689 1.10954-.92556.4911-1.51905-.4911-.50012-.16199-.61635-.66583-.18157-1.57822 1.60724-.919 1.62076-.65767.71854-.99799.58675v.37666l-.77942.45812h-.62355l-.81201-.22153-.25523.9686h-.86043l-.50432.89028h-1.55072l-.68109 1.20208-.27407-1.04178h-.57261v.67029l-.70301-.41347-.28172.497-.96894-.57016-1.06775.29158-1.12483.99194.31788.32372-1.3184.50949-.29495-.17327-2.36018.50635v.83371h-2.54614l-.61844.70403h-1.05503l-.41773-.75954-1.66278.97743-2.28429-.36629-.25827.45604h-1.06928v-.30764l-2.60064-.64853-.75905.20754-.58688 1.12632-1.61845.35174-.30921-.24071.41823-.98158-1.56394.64799-1.13399-.30922-.3184-1.2913-.63117.37977-.24096-.14165-.45186.26513.0851-.14942v-.39844l-.62506-.17068-.13042-.49547-.11871-.0694-.36526-.21477v.67029l.1824.32219-.33572.59247v.57794h-.28987l-.20733.36473v.33619l-.23128.0632-.24861.4384.21395.2179.0683.25992h-.26795l-.6251-.17017.18545.18883.14214.25007-.37393-.0534v.38133l-.2267.23033v.42905l-.29546.17379-.6159-.16807.96538.56809-.39584.23293.1941.73929h-.406l-.3398.59924v.38806l.20987-.12347.15436.27287-.30921.3144-1.1279-.48143v.66667l.70047.71335-.29088.29624-1.55529-1.58392-.67295.16705v-.85187l.0687-.78911.11308-.43164h-.74785l-.27355-.483v-.46902l-.25166-.0685-.33266-.55563v-.9022l-.14161-.14373.18389-.32475h-.27254v-.48614h.3194l-.68518-.40258v-.9987l-.57054-.58159-.48244.49132-1.88998-1.58444.87926-1.17093-.90473-.53179v-1.4869l-.50842-.13852-.0448-.17172h.58177l.15539.15824.19866-.11674.15641.27653-.14266-.14527.12992.22931-.0827.31439.18337.18677.12736-.48454-.17625-.31078.72033.49754.92563-.94268-.38616-.31024.39176-.36887v-.3118l-1.14977-.31387-2.30264-5.23062v-.91724l.32196-1.08687-.3138-1.19224h-.77943l-1.55833.91673-.107-.40621-.4926-.2895-.24656-2.643305.15028-.04097-.14723-.259921h-1.00613l-.31532.320622-1.12533-1.146041-1.46616.576393-.85634-1.51128v.725809l-2.06266-.183657-2.67503 1.073928-1.30363-.766796-2.64444.478339-.28274-.877302h-1.01581l-.28323.49961-.36373.09911-.54459.320104-1.61233-1.102462h-.66833l-1.504335-1.36175h-.527761l-.09018-.34293h-1.156912l-.579786.590939v.472633l-.41057.497537h-1.092724l-.555278.326326-2.063696-.801555-.461032-.12555-2.449845-1.520618-2.398902-.65525zm5.666378 17.289703.434033.1183h.536939l.485995.39895.734596.20027.115132.43631 2.55122 2.5987v.5188l.382582.22516.741216-.27028.342343.34862h.805911l.32552-.33152 1.53949.71338 1.03416.60854 1.37901.37615.0719.27393h1.30057l.48549-.16811 1.32451.86537 1.23637 1.0677h-.24299l-.23128.40829.50078.13647.94448.93904h.99338l.79472.58467h.63984l.39124-.22981.73458.5219.17474.6646.68621.81918-.37546 1.14656.35354.51675.87011.23397-.21803.8275.15538.82541v.84254l-1.46715-.57223-3.49621.36573-.11363-.43215-.93428-.25524v-.28224l-2.88541-.33412-.24298-.42853v-.14371l-2.06676-.19039-.64036.23812-2.02904-.66769-.39278-.69313-1.49569-.30819-.158425-.60335-.52828-.49338v-1.1284l-.452884.15875-.920536-.4768-.424355-.11568v-.47264l-1.144688-.67081h-.463618l-2.008679-1.24771-.187468.33047-.388696-.39586h-1.145686l-.217016-.82437.147733-.56187-.42741-.75435h-.364232l-3.355099-2.17793.640353-.35953.227204-.40052 1.141122-.27393.993385-.89909.957217-.26148.389205-.4581h1.081516z" fill="#f6bad3"/><path d="m28.278858 71.480367v144.726473h171.342882l2.30515 1.65914.66787-.39324.76973.45292-.55016.56031.71066.41817 2.1024-2.14164v-.54215l.30617-.18003v-.43789l.0188-.0113-.0702-.12401.0765-.29.37443-.66046h-.17217l-.23232.40988-.25267.44513-.32196-.18885.46918-.82802-1.06369-1.08379.36525-.37197.5293.53851.39482.10738.1508-.57325-.69488-.70766.0591-.22412.33623.0914.12429.47262.0902-.34187h.96385l1.18188-3.38988-1.10495-.91516-1.58077 2.78856-.73612-.20077 1.30975-2.31127-.40042-.23554-.7886 1.39142-.75956-.44669.99289-1.75201-.47836-.28169-.88132 1.85834-.36831.1002-.49669.87575v.42544l-.38207.0747-.78146-.79637.47935.20494.37547.22047.54559-.90737v-.53697l1.29242-2.55772-.91035-.5354-1.20072 2.07417.25472.29677v.48144l-.8003-.57432-.60623.61792-.63577-.648-.14825.56238-.81049-.47678 2.55224-1.07081.38511-.67963-.2817-.28692-.66023.97434-.22363-.85033-.56496.33255-.18798-.71596-1.24659 1.67576-1.46358-.86018.98066-1.41842-.23486-.13747-.85482 1.46302h-.16352l-.1457-.55306h-.46612l.0821.3113-.65006-.38133-.30562-.53955-.297.081h-.64904l-.15079.26665v-.40778l.44219-.52659-.76973.45294 1.36374-1.18549.22772-1.58339-.13653-.13904h-.92768l-.36372-.37096-.1885-.58051-.22975.0623-.52776.57431-.47226.20388v-.59246l2.05454-.64852-.56803.24902.4045.71389h.79014v-.61737l.50127-.13698-.18187-.69054h.38207v-.33307l-.41825-.1297-.27303-.25889.66377-.0652.68212-.69415-.25471-.35226.32705.20387 1.6918-.0924v-.40779l-.3739-.41554h-.66125l1.0214-.60078 2.89765-1.0646-.11972-.45498 2.94246-1.36188v-.79999l.4269-.11672 1.33725 4.51826h1.14468l.91289-.92969-.82271-.8384-.45136-1.50868.17475-.66509.20224.76886.24706.43578v-.91776l.46562-.12709.36986.65316.88843-.24228.0974.36991-.84003.4939.30819 1.17043 1.62457-.95461-1.40552-3.06356.60775 1.0729 1.52626-.67859-.34132-1.29805.6154 1.08585 1.42029-.77041-.60979-1.07653 2.49008-1.27677.24911-.43893 1.50486-.66769v-.8908h.48854v.64228l1.17729-.39273v.24643l-1.13908.66978.38614 3.03864 3.24253-1.69545.29394-.51775-.73358-2.09599-1.36274.66822h-.36017v-.35331l1.62562-1.12113 1.25368-1.27679.27457.16136-.7422.75589v.70766l.59041 2.24487.54711.32218 2.54105-.93177.13397-.50896-1.51759-3.50036-.4437-.1209-.85483.87106-.19968-.32111.84257-.85761v-.73046l-.59806-.35123-.50279.2957v-.65524l1.07488.63243 1.06777-.29106 1.22619-1.49417-.892-.73255-1.64649-.60233-1.82578.19196h-2.71932-.5874l-.33011-.58313-.90118-.24592-.73663.26926-1.33623 1.36083-2.5935.49546-1.40807-.38442-.55018-.99976v-1.02101l1.20633-1.14655.20834-.79221-.64288-.83789-1.26033-.55044h-1.36323l-.86398-.56238-1.27053-.74657-.90067-.89078-1.92872-5.94602-.84868-1.07392h-2.13502l-1.14623-.75591-.41618-.73464-1.98221-1.33332-.58225-.88872-1.21857-.61116v-.48196l-1.20022-.55566-1.89456-1.43708-.65157.17795-.77178-.77977-.76209-.20803-.70301.41348-1.21856-.75641h-.99849l-.7621.20751-.6052-.35591-1.10801-.65109-2.25473-.35174-1.65514-1.39974h-.621l.14774-.56342-.89099-1.01893-1.00002-.40312h-1.90372l-.36985-.65266-3.90324-1.52788-1.25981-.18365-.53542 1.18443-.4809.28274.63271 1.35564-1.55428.80883-.29647 1.12685-1.02295.60181-1.40042.0186-2.25931 1.73644-.3999.40726 1.58739 2.80103-.72594.19765-.8426-.22982-.92053.54164-.1778-.67497-.31738-.55981h-.65104l-.96179-.97846-.34897-.61583-.51097.30091v-1.88904h-1.41875l-.92768-.70401v-.37044l-.5456-.45498h-.34692l-.14416.54787-1.39992 1.42566h-.47326l-1.08202 1.88015.97301.99144v1.07394l3.12637-1.53724v.70557l.96231.97951v.48507l.54865.55877h.94804l.3072 1.1668h.48293l-.17066.30141.63474-.17329.0989.3746.6276.63916 1.35867.83424.47782-.13022-.19406 1.74423.95312.25992.65462.38495v.30765l1.17779 1.33229.49414-.29054-.27864 1.05994-1.27409.34707v.5245l-.54865.3227-.51808.91312-.18035-.10584-.91697.93333h-.57616l.10952-.41558-.32706-1.24254-.2863-.0779-.0702-.26924-.65156-.66253.5288-2.01034h.65868l.4748-1.80341-.56395.33101-.46662-.27442-.72392.73773-1.04126.28376v-.30452l-.64596.37975-.67449 2.56395-.50535.29727-.51962 1.97404.44269.78135 1.08153.29519.53185-.938 1.08762 1.91853v1.69287l.11105.42076-.54405.95927.37747 1.43502.4967.13488.36066.63761-.16555.1686.49057.28899-.29851 1.13462.46052 1.74889-.38615 1.46669-.6215.16965-1.32759 2.34135.93685 1.65343.94806.25836-2.51404.96396-1.51708-.4135v-1.39306l-.93327-1.64565-.2053-1.51908-2.03211-.52399v-.41868l1.05654-1.42983-2.36579-2.40931-.18033-.68587-.52776-.93126-.0786-.29935h-1.01277l-.67243-1.18598h-1.00305l-2.13605-2.59353v-.55983l-.4101-.72321-1.31127-.36679v-.5764l-.82322-.65474-.59196-1.41426-.12838-1.2052h-1.51708l-.77331-1.99064v-.66095l-.92359.25214-.30263-.53491-.67548.1842-.42998-.86122-1.23635.33722v-.39793l-1.06013-.62359-.79728-1.02101h-1.33773l-1.58077-1.3816-1.22262.3331-3.40809-1.45319-.57821-.58936-2.39227.57586-2.00613-.78544-1.36323.39272h-2.77791l-1.44017-.786v-.62825l-3.30824-.82855-.5456.32114-2.39227.65267-.49465.13487-.49109 1.86665-1.63475-.44615-1.22823.72218-.88745-.90375-2.20379-.52399v-.98159l-2.11717-1.24463v-1.30945l-.87418-1.23112-1.5563-.87783.71523-.72841-.67347-.68585-.14467-.54995-.552738-.56341-.327048-2.12866.352519-.62153-.977077-.99507-1.105972-.20958-.360167-.57693-1.716774-.43787-.607239.61842-.276112-.16239-.717786 1.26589-2.752444.44514-.719822-1.12633-2.057586-.5764.588901-1.56731-1.69487-2.99039-2.232829.53332-3.631209-1.76446h-1.106147l-1.01835-1.25135-.885386-.24176-1.510966-1.80389-.77739-.21269-1.459005-1.65241-1.910869-.52141-1.388703.57588-2.211941-1.40077h-2.396642l-.38156-.67238h-1.233328l-.618957-.88872-2.181885-1.14863-.691294-.70402-1.963848-.96292h-.436472l-1.564457-1.48167h-.581769l-1.782491-1.70377v-.81557l-1.138065-1.94448-.5349-.31491-.582277-1.59274-1.636286-2.66717v-.42596h-1.109565l-.964351-.98156-.726956-.33359v-.88872l-1.36272-2.31492-.826295-.75952v-1.04696l.4916-.28948.269488-1.97821-.408054-.71906v-.71389l-1.224668-.33409-.869085-1.39613.355073-.0971-1.260326-1.78106-.154359-3.11699.257264-.26199v-.94266l-.38615-.36681v-2.75019l-.128374-1.676769-1.131443.576389h-.565977l-3.47838-3.866141.340806-1.293898-.231785-1.099869-.720334-.943187-.360169-.392737v-.916729l.838523-1.142929-.329602-1.252914 1.009178-.275484 1.182386-1.666924 1.618457-.481451 1.005611-.418676.31228-1.189102 1.128386.308171 1.663794-.978468 1.127366 1.037093h.782485l1.581777-.815042h1.328081l1.309232-1.388844v-1.222346l1.655135-1.407519 2.236902.222049.781973.962902 2.437108 1.426198 2.85535 2.963416 1.904755.237092.654107 1.153307 2.139601.686378 1.203782-1.225936h1.610815l1.810001 1.843314h1.696399l.533881.941115.506881-.516732 3.650568.996108 2.194111-.598702.771276.453436.826292-.22516 2.734616.745522 2.687237 1.58028.955689 1.685601 2.398902.654731 2.449845 1.521138.461541.12555 2.063189.801556.555277-.326849h1.092724l.410601-.497534v-.472631l.579728-.5904h1.157425l.09016.34293h.527267l1.504339 1.361864h.66888l1.61182 1.102462.54511-.320103.36322-.0991.28374-.499609h1.01531l.28324.877299 2.64394-.478339 1.30362.766278 2.67501-1.073409 2.06267.183138v-.72581l.85688 1.5118 1.46615-.576393 1.1248 1.146041.31534-.320621h1.00613l.14722.25992-.15029.04098.24708 2.643309.49209.28951.10697.40569 1.55887-.91621h.77943l.3133 1.19223-.32145 1.0869v.91673l2.30262 5.23111 1.14977.31335v.3149l.51708.30404 1.2323-.72529h1.05608l.88994-.52297 1.42947 1.12219.60063-.35331.90727.53281h2.46513l-.26491.46797.18188.69363-.62711.63917.59144.60182v.50013h.36323l.33978.34555-.53642.54575 1.28122-.75276.84871.49854.36323.64074v.60026l-.60522 1.06667.32145 1.30167 1.13399.30974 1.56395-.64798-.41876.98158.30974.24019 1.61846-.35175.58633-1.12632.75958-.207 2.60063.6485v.30764h1.06878l.2588-.45602 2.28428.36627 1.66225-.97795.41825.76006h1.05451l.61897-.70402h2.54612v-.83372l2.35968-.50635.29548.17275 1.3184-.50895-.31841-.32374 1.12482-.99194 1.06827-.29158.96894.56966.28121-.49649.70353.41347v-.67029h.57209l.27406 1.04176.6816-1.20207h1.55022l.50432-.89028h.86043l.25522-.9686.81254.22102h.62302l.77943-.45812v-.37613l.99797-.58677.65819-.71855.91901-1.62075 1.57821-1.60724.66583.18158.16198.61633.4911.50012-.4911 1.51855-1.10952.92608-.76414.79688 1.56444.759v1.72244l-.18187.61166-2.38258 1.81481h-.7998l-.58229.42593h-.85483l-1.52776 1.87082 1.52776-.7554h.86757l2.188-.59663 2.45544-1.18545v4.07469l-.6006 1.42619h.66531v.37978l.64392-.17587v-.37036h1.21905v-.7227l.56344-.42595h.89149v-.54163h.28325l.23178-.40934.25013.25474.83139-.48975.62456.17067-.34794-.61478.87264-.29622v-.46278h.69131l.41824-.85188h.75396v-.3585l.5191-.14164v-.61114h.54561l.38104-.8716.90219.24591.20531-.36318h.81203v.54477l1.74734.47679-1.37598.773v.91674l1.02448-.57172.29495.30038.42945-.25266.55324.56343.69435-.70766.006.51726.2761-.28118h1.05505l.0643 1.13928h1.17016l.74579-1.75512-.38564-.30091v-1.99065l.76007-.53127v-.40309l.2965-.52349h.60011v-.66667l.56394-.62982h.6368l.58176-.59248.14008-1.04332.27814-.49028h.9725l.6643.1816 1.12736-.77822h3.58282l1.2914.48198h1.18189l1.65514-.68534h.65462l1.60061.55563 1.21856 1.00026 1.41875.96291 2.65516.0924.58228.27808v.42593l.36372.57433h.3999l1.81866-.83372 1.0912.68586v.92555l-.21294.77666.12173.46432 1.07287-.46276.74581-.50014v-.94474l1.09171.22204 1.05451-.25941v-.90738l.92768-.92605.23638-1.27783-1.14573-1.05577v-.29625l-1.10952-1.07443v-1.05578h1.09171v-.64539l.87264.23812 1.45188-1.05992-.0994-.37819.31737-.32375 1.09427.29885 2.10954 2.75952 1.45289.17121 1.5446.42178 1.22211-.33411.90525-.72167 2.48243.17018 1.29193-.91881.23637-.89909.56751.15463.53389.80515-.58534.59663-.59451 1.25759-.18186 1.73229.75446.97121h.35863l.34185.60285 1.43709-.62048 1.15743-1.60778 1.47937.40415.68723.86121 1.76211 1.58495h.48854l.63017-1.30998.91289.24904 1.46614-.62984h.71166l.96028.56446v.57639l-1.26033 1.21764v.70194l.25216.95824.81611.22256 1.09223-.29832v.21011l1.49976-.59818 1.28323.35021.36527.64435-.17372.6589-2.54612 1.25914-.72695 1.05575v1.05578l.65462 1.0376.16352 1.25915 1.45492 1.92632.6913.90792 1.01835.36989.94549 1.51908v.98157l-.86398 2.09286v1.43552l1.64597 1.67574.72796 1.44489 1.90221 1.63217.51656 1.96108v1.11129l-2.16456 3.20413-.67296.59298-2.01887.37045-1.39276.34706-1.14214.67134v1.59584l.40244 1.52945-.17677.67186v3.07442l-.61896 1.66693.2002.27809v.9629l.85483 1.40754 2.32809 2.05601.27304-.0924.2909.46278.77841-.64748.44016.25837-.61847.6485 1.38209 1.35202 6.73669-4.51777-5.09735-4.1489.98319-1.51749 1.91342-1.34943 2.56396-.29517 1.37188-.59404-.45388-.93387-3.59199.99145-.13601-.26147.85838-.67705-.91444-1.0428-1.23229.69522 1.21142-1.15956 1.63781 1.50557 1.54562-1.47652 2.29445-2.50217v-68.100013zm239.840172 68.210463-1.40654 1.54966 1.40654 2.78236zm-15.47695 11.74732-2.21194 1.67677-.66888 1.20467v2.33099l3.72954.91672.99642-1.01477.72696 2.29832.33826.19922 1.68062-1.29909.32705-.57691-1.57414-1.62336-.43097.11777.13753-.52191-2.31737-2.34604zm-26.79495 30.15193-1.52778 1.59323.98218 2.29678.58585-.49183.10495.39896-.52727.53748.91697 1.94967.84209-.49494.08.14111-.43863.77458.89099.74084.96383-.98158 1.3821.87056h.40041l1.79369-2.42489-.9572-.26096-.63375-.24487-.25776-.97744zm-8.6934 6.96442-1.32758.55515-.14569.40778-2.25524 1.16679 1.50995 2.64901 2.52779-1.38934zm9.79072 1.54867-1.82275.0358h-.97708l-.14314.54266-.12735-.4249-5.23389 2.9598.92054 1.62334 1.18851 1.035 2.95773-1.47963-.54763-.966.65665-.38599.56801 1.00181 4.62154-2.58314-.72032.3009-.56395-.99455.44982-.45758-.34895-.041-.56344.15357zm-13.37099 1.77741-1.40143.74656.93837 1.63733 1.32449-.75951zm-1.59452.91673-1.54357.786.91341 1.68973 1.50486-.85188zm6.22931.38756-7.22013 3.81528-.60011.61116.85532 1.11128.49416.13488 1.54254 2.82904 6.58335-3.48221v-.51879l-.90932-1.40754-.10036-.38287-.48143-.6542.84363-.4965zm-13.13512 1.04019-2.48194 1.2441.26133.51517-.0755.28794.27355.0742.17066.30143 1.17373-.61583.16352.28846-1.12431.60233v.38496l.38259.67444.1839.0496.18493.10897v.58884l-1.08001.35435v1.66328l1.44934-.5131.27408-.4825 1.38868-.53695v-1.32245zm-2.6424 1.80078-1.33776.47833.87673 1.54604h1.38664l-.77177-1.48066.17983-.27497zm-1.59503.524-1.64241.63242.5879 1.03759 1.92818-.12866zm-2.81612 2.25264-.94552.75122-.0462.17641.43352.25475-.0524.19919-.30158.15721v.32684l.79012-.46484 1.60472 1.68664.31176-.31752-.7453-.8088.34032.19974.59144-.54372-.57921-.58937.28323-.22878.57871.41244-1.28632-1.21141zm10.53856.77925-4.5268 1.82048-.49619.29157.5991-.25214.28273.96861-.18187.32218.49109.37198 4.51354 2.75021 1.22161-1.38833.35508-.20857-.99796-1.7821-2.19565 1.29132-.74785-.43997 2.27513-1.46665v-1.23112zm-4.32303 3.1507-.61488-.46588.60878.47627zm-7.02297.75072-.39125.6895-.58228-.34242-.58889.59972.47835.2807.21243.37457.64391.28637h.6913v-.7865l.51809-.52814h-.46359l.10037-.24074.11767-.12036.2914.0274-.37342-.0554-.43149.76161-.29902-.1764.25165-.44463zm8.9899 11.96105-.24963.14736.0388.0679z" fill="#ccc"/><g fill="none"><path d="m37.655951 92.222008-.970005.570342-1.816089.494667-.460448.468926-.604295.08185-1.270799-.491107-2.04254-.57296-2.206242 1.216077" opacity=".759657"/><path d="m80.376114 143.47761-.165626.29216v.82053l-.237162.24152h-.642977l-.530685.63276-.16316.62012-.95284.69126v.66762l.158345.2793-.704638.68237v.33297l.371219.2585.629094 1.00037v.34843l.507694.47209.458159.80816.292342.77667-.916187 1.93984.265342.8107-.427493 1.62479.880137.39396v.68353l.780418.49275.08717.33132h.786899l.172398.3041-.421984.42975-1.139562.71515 1.287693 1.31139v.64376l-.300464.30602v.71132l-.581409 2.25717-.602101.35403-.296812-.17452-.911663 1.68028.258941.98419.724389.0968-.405818.47687h.842852v1.33523l.178527.67853-.358974.6332.442999.78141v.62502l.39941.40677-1.692113 2.53392-1.873009.90607v.34971l-.733594.81067.327347.57742-.374173.69424v1.43948l.560659.32967-1.032405 1.76099h-.640135l-.59599 1.50612-2.935789 2.18055-1.28027 2.06815-1.225054-.33428-1.309482.76993-1.394562-.18836-.507691.51702-1.310393.3576-1.705277-.28132-.235304-.41506h-1.278708l-.561901 3.24447-.889678.7948-.713148 1.25793-1.303683.76653-.919637 2.14301h-.882942l-.33385.58889h-1.233369l-.355342-.36187-1.49884 1.63881-2.295652-.22479-.668706.39318-.756097-.20633-1.378546.93714-.237396.90229-.563313.15372-.854811 1.07958-.40815-.71996h-.938338l-1.240886.72962-2.04808.48489-4.235495 3.51951-2.669032 2.95656"/><path d="m254.48364 112.42198-1.13009-3.15842v-.562l.61806-.76431v-.94415l-.52977-1.14649.12585-.47828.7571-2.84873-1.00436-1.02284.39353-1.49572-.33298-1.265555.26726-1.015657v-2.168993l1.54182-2.486354.45376-1.72464.63885-1.54987-1.59206-3.751376-.15609-2.225395-.81164-2.257186-2.0603-3.115552-.99895-2.09823-1.1394-1.160384-.51509-2.018751-1.04155-1.71069"/><path d="m200.13929 166.56607.42142-1.00937h.16389l-1.17843-.69941.25063-.44209.12148.21429h.33807l.1795-.55109.60872-.36559h.39801l.34729.35367.27315-.27818.34012.19999.24065-.1415.59375.39852.21009-.37057 1.37417 2.07935 1.13395-.66674.0763-.54346-.2097-.57323v-1.33756l.35317-.38215.35114-.6194.0849.32262h.3807l-.17659-2.18725.43043.43836.5136.14015h.57905l.90502.77028.0865.32867.53158.91896.71187.72499 2.58813.17421.58652.34487-.18464.18804.26437.46634.41816.11411.31726.75247-.0957.16896.21327.21719h.32397l.11343-.43109h1.72972l.0955.36291.42725.25122-.29302.51686.0768.29193-.0703.26727.0661.25094h.29377 1.04849l.0879-.22135.22241.0795"/><path d="m227.05996 164.89002-1.3597.79947-.32296-.56968h-.70943v2.80535h-1.6779v-1.23192l-1.26429.13511"/><path d="m205.81683 162.83854-.20665-.78545-.65241-.66442h-.79933l-.9721.57157-1.18585-.69725v-.2763l.15138-.0891-.16656-.16963v-.52024l-.18602-.10937v-.29597l.1321-.50207.35125-.20653v-.571h.38324v-.69153l-.48077-.84806-.23407-.88962-.34425-.20241v-1.16214h.69487l1.69967.65192 1.32442 1.03407h.37524l.93919-2.13638.54629-1.36703v-.3815l-.39021-1.22397v-1.0491l-.0776-.29478.0881-.33504v-.46699l-.32277-.61993-.62433-.77889-1.21746-1.87569.6244-.17038.79228.2162 1.18993.2721.39801.40533v.30997l.42923.25433.63994 1.35114.68677.79478 3.16851 2.74995 1.32671-.39739.34339.34971-.49167.50071v.34175l-.33261.0908-.11581.44019.54988 2.12363-2.0447 1.01731-.73804.2014-.23928-.0652-.10175-.38675-1.23098.3937 1.74814.90606-.33313.0909v.30649l-.86871 1.39882-.68948.4054v1.39081l-.0948.13909"/><path d="m204.6501 145.87786-.46213-.81518-.19145-.72766v-.73024l.11716-.20667-2.41356.31793-.17914-.31599.1566-.27623-.10498-.39898.1783-.3145.69948-.19087.51402-.95136.82814-.48692.27854-.16379v-.27919l.2131-.0581.42756-.43544.0444-.16854 1.29887-1.32278.61728-.49534.20284.11927-.28546.50354-.18268.18604.0973.3698.28939.17015.31781-.18686v.41165h-.26261l.1483.56368.10968.41687.35272.20739.0753.28622 1.57146-1.42587 1.6701-.82658.21969.38753h.62317l.36637.64626.0926.35169.96276.26271.70107.65668-.43703 1.06501v.68352h.46825l.0606.23041.46785.12767-.21274.12508v.21625l-.33456-.19672-.15741.16031.1435.25312-.14955.0408v.3783l.18479.1882-.31924-.0872-.25487.44957-.89558 1.1184.37459.3815.1873.19074.60873.69941v.42918h-.17169l.63994.34971h.73359l.70238.31792.1404-.24765v.4225l-.1404.33381v.6994l.15608.27024v.76299l.1561.31791-.16744.29534v.37227h-.37886l-.15609.44509-.22632.23048-.5181.0385"/><path d="m214.77324 151.98095v.23042l-.35869.1405-.0742.131h-.16302l.0701.26654.13859.52671v.61562l.25671-.0701.16037.16333.4125-.11256.054-.20521.67245.18351.52123.30646-.13085.23081.0763.28997h.22428l.16266-.28691.10289.39104.2965.0809.34349.34981v1.21179h.50362l.48437.85439.20491-.0559.17527-.30917.11413-.20132.10921.0643h.52758l.0761-.13417h.42341l.27808.39065"/><path d="m222.63144 156.95462h.89399v-1.124h.44147"/><path d="m214.30417 143.07329.15238.0896.30173-.53224v-.34977l-.1222-.12445.20365-.11974-.17567-.30987.19825-.0541.16971-.29936.23892.24331.25266.14856.57385-.33743h.2982l.45939-.81033h.37543l.15098.26633h.23142l.26283.26766.0592.22523.16806.17115h.72731v.55481l.28184.49715.085.32302.69454.59454.70384.41384.60937.16628v.15108l.45159-.4599.33453.34068.36452-.21433 1.50068.55609.78131.45939.15726.59768-.15121.5747-.6781.81616v.27023l1.13268.83524"/><path d="m223.87308 144.43895.55737-1.15772h.43595l1.60585-2.95049.21141-.37291-.39723-.70069-.21327-.21719v-.26031l2.09098-.82578 1.1082-.84247-.14047-.14305v-.25433l.20882-.057 1.28958.43849v.87426l.21852.50866.21071.21459.39801.65967.14132.53711-.15841.27942v.24848l-.41214.59212"/><path d="m217.23996 140.61175-.0993-.80927.20601-.36337.20384-.77477 1.15187-.81762 2.05284-2.93362h1.87625l.9189.25075h.88011l.49495.50406.64808.17686.33741-.19841-.36629-.37301v-.36025l.75106-.2248v-.47208h.57391v.53952l.36189.0988-.22565.39804h.61427v.27876h1.05953v.68564h.59599l.0662.43274"/><path d="m206.66672 137.84672v-.21356l.38905-.39621.21562-.81955.29827-.30375v-.58387l-.0971-.36914v-.982l.28862-.50909 1.11103-.73077v-.28612l-.34237-.0935-.32258.18968-.19355-.34139-1.57249.4291-.22105-.22512-.28616-.16826.30881-.31449-.11796-.44836h-.42896l-.15228-.26861.2087-.36812-.23696-.41799-.76557-.45013-.14808.26119h-.32617v-.33533l.58921-.60006-.12227-.21567v-.77383l.52419-1.16039.16653.29375.51873.305.46976 1.05439h.39021v.31792h1.27989l.46224.12614h1.36393l.45669-.46509.98553.26894v.25419l.36472.21445-.28541.29067.2536.44734v.55369l-.27903.49219.21103.0576v.30446h1.20571l.1012-.38467h.25197l.52548.53516.21399-.21793.41141.24189h1.04545l.14713.55924.89092.52383v-.19377h1.21016v.58814h.57751l.38241-.38945 1.61637.44108.54539 1.32732"/><path d="m215.36923 132.03006-.56011-.32934h-.56564l.27778-1.05579.50368-.13744.94273-.5543-.12836-.22641-.2924-1.11136h.30794l.25222-.25686v-.16694h.59761l1.04957.61711.33437-.1966.15367.0904.24727-.14539-.0594-.22561.57276-.33677-.32524-.57369.63834-.65007.30233.3079.62359-.63505-.21523-.21918.18211-.18546.35401-.0966v-.3317l.30665.18031h.30987l.122.46368.31781.0867.28764-.0785.27436-.48396.48836.13326 1.40044.82343h.29422l.32845.33449.45599.80435v.65414l-.42023 1.05656.88295.80927.35188.62071-.11297.19926.12914.13152-.23266-.0634-.0944-.35885-.40334-.23716-.17211.17529.3303.33638v.23042l.0978.0575-.0997.17589.0703.26732h.32344v.4547l-.27041.27538.14711.5591h.70825l.23361-.13736.16636.29345.17021.0465-.0842.32011-.19324-.0527-.29274-.17213-.0653.0384-.0197.6557"/><path d="m205.26504 127.33739.21115-.37245h-.27737l.15534-.27401.20093-.20463v-.76747l.21838-.3852.25018-.4937 1.87301-.69146.67115-.68351.67899.39922h.8358v.58454h.51873l.16028.6092v.44735l.46851.12785v-.42008l1.05985-1.33756.44146-1.07903.4327.11806h.56062l.0319-.12139.29269.17209h.48106l.31998.32588.17017.64677.48943.28778.32057.32647.33836-.0924-.15525-.27386.80135-1.15342h1.09265l-.26971.47573.81734.83237 1.32862-.58875.60948.35836v.64199l.70777-.19314.61114 1.07803.45555.13795"/><path d="m230.62637 137.09947.83114-1.29947 1.20965-2.59099 1.22526-1.43856 1.01455-1.17628.29656-.90606.24974-1.92337-1.9285-.25876h-1.36857l-.30352-.3091h-.38077l-.10092-.17803h-.21914l-.14666.25872-.23349.41185-.39887.23452h-.84339l-.3963.4036-.11299.42946h-.72683l-.94862-.57898h-.49947l-.46824-.42123-.66627.18181h-.30352l-.16733-.63596-.41211-.41485-.46036-.14833"/><path d="m224.37526 126.71918v-.52828h.55183v-.47768l1.65281-.71434-.53849-.54839-.0972-.36947-.51038-.13926-.44755-.26315v-.27724h-.90901l-.64013-.51501h.16555v-.46083l-.58495-.09-.27374-.48286h-.47676l-.26449-.15551-.29-.0791v-.42896l.21102-.21492.12821-.4873.22062.22468h1.28594v-.43291l-1.56722-.32595-.40836-.24728-.23178-.41588.23178-.46083 2.12362-1.24864.41485-.54976v-.51703l-.50218-.51141-.76442.44945-1.22773.43288h-.86086l-1.31338-.73059-.84534-.23068-.0848-.32227v-.60477l.67546-1.19146-.11032-.56838"/><path d="m243.71448 146.43966v-2.50089l.51046-2.36601-.54632-.55638v-.31472l.14347-.14611.43431-2.07713-.1873-1.46241-.6487-1.14425-2.09839-1.04935h-1.17062l-2.66364-1.56615.24433 4.37969h-1.35792l-.17134.30222h-.31253v.92175h-.56189v.41328h-.90966l-.11293-.42924h-1.05697l-.16082-.28367-.49669.29204-.24499-.43211-.2509.0685-.17995-.18326-.16765.17073v-.25852h-.30903l-.0601.22866-.31234.22937"/><path d="m241.31812 134.81844-.29568-.52155.31519-.51564.85455-.87029v-.43315l-.69656-.19009-.61844-.54112-.14494-.55087.57417-.56183h.53848l.33213.19528.6512-.52909-4.11281-5.01508-.88967-1.828-.64398.37864-.41739.55921-.15677.27654v.58182l-.35831.52456-.42225.74481-.31134.60631-.0622.62717"/><path d="m223.57233 120.2773.95192.1981 2.05285.20794h.94365l.97123-.13488 1.16277.008.89355.24383.58073.59141v.69074l-.41198.24222-.16124.28444v.38734l.31551.55654.92067.82871.85637.23368.96539.26344.67982-.18551.97332-.57229h.92878l.41388.53605"/><path d="m214.85799 123.28216v-.42919l.11784-.20787h.26457l.16204-.28582v-.75427l.12426-.21918v-.73059l-.52042-.433-.0744-.28285-.82307-1.22724-.82334-.8385h-.45654l-.11042-.41965-.69342-.29168-.19708-.34763v-.64584l-.85649-3.00429v-1.14449l-.84285.62788h-.48385l-.99894-.41328-.70239-.82658v-.30996l.25755-.60404v-.27818l.60872-.82658.80932-1.49985"/><path d="m206.02755 124.82801-.51313-.52257.51409-.52354v-.42346l-.98972-.42712h-.47459l-.17659.17984h-.32006l-.0582.10264v-.36677l.61003-1.84898-.49949-.88106.25065-.95269-.48179-.49067-.69312-1.91303-1.93144-.42712h-3.28668l-.75042-.44123-.24927.4397h-1.49766l-.50726-.62408-.7634-.20832v-1.48457l-.26337-.15486h-.5809v-.48891l-.30689-.0247"/><path d="m201.51672 143.40211-1.58427.43231h-.62041l-1.34256.78939-.93627.0857-.18043.31827-.46342.27249-.40384-.11021-.12834-.22639-1.43057-.45285-1.21927-.23486v-.3934l-1.31338-.80928-.89075-.24306-.63233-.44257-.2097.25851-.19156-.33789.12466.47377.54838.14965-.0721.27375.75985.20736v.61588l-.39774.10853.12381.1261h-.26627l-.19317-.34075-.34212.0934-.43145-.25369-.2655.2704v-.70082l-.16386-.28903.23057-.2348-.34255-.60423-.10603.18705-.10762-.48645-.93814-.85425-1.13965-.31098-.95517-.0621"/><path d="m202.09066 142.31058-.0787-.299.38829-.22831-.14209-.25065-.51656-.14096-.26277-.2676-.10611.18717h-.28872l.2145-.37836-.21588-.38079.30807-.5434-.32326-.32921v-.21177l.69505-.18967.32018-.56477.8153-.64253v-.72783h-.1729l-.2911-.51348-.98484.26875-.15095-.5737.4903-.49933-.17703-.67284-.21223-.21613v-.83373h-.63375v-1.30306h-1.01438l-.45325.12369-1.83281-.61168-.47275-.48145.12066-.45862-.34386-.20217-.80381-.36852h-1.027l-.25392-.44787.12955-.49233-.59028-.16109-1.19266-2.60091.88361-1.55862h1.30083l-.0803.30494.29804.0813.11463.43567h.25443l.50535 1.33434h.27713v.41505l.84768.31544h.9292v-.53126h.60317l.23637.24072h1.32859l.59034.1611v-.25241h.56709l.60316-1.34475h.79878v-.23242l.94551-.59766 1.16557.87989"/><path d="m184.44317 132.30677v-.55762l-.33115-.58409v-.60744l.58056-.59122h.60935l.73773.62644.66457-1.17225.84936-.50349.66429-.67652 2.69386-1.02515 2.10905.0747"/><path d="m242.83062 130.30816 2.18726 2.31556.94521-.9626.39161.10686.18297.10758.10835-.19112.21212.12472.19575-.19936.37314.38001h.88759l.17291.17609.24026-.0656.23197-.40919-.54455-.96054v-.44298l.23211-.23639v-.49144l.40017-.70588.30895-.0843v-.4894l-.1696-.64461.56866-.40018v-1.2561l.11167-.42443-.11865-.45095h.17988l.14147.24954h.34266l.33196-.0906.16372-1.04446h.24207l.16714.17022h.2824l-.17126-.30212h.27502v-.38463l.27039-.0738v-.44273l.61407-.16757v-.34895l-.46529-.47387h-.55749l.12634-.48028 2.02497-.34216"/><path d="m237.82812 123.44682-.70629-1.52927-.46621-.82236v-.38678l-.37762-.22203v-.84624l-.14457-.25501v-.26151l.63668-.37435h.92808l.14985 1.26653.63685.17378.29684-1.88771h.62247l-.47837.48718v.34631l.14295.25215.79862.21794.40841-.41593v-1.34547l.30473-.17919.28935.17014h.83804v-.43123l.35864-.36523h.76618v-.28223l.73358-.58107 1.35304-.11621.16302 1.11232 1.01902.42617.44956-.45784v-1.0213l-.35733-.52827-1.39478-1.98393-.54177-.66913-.74926-2.00742-.20986-.79762v-.92804l.55567-.57522"/><path d="m170.40009 151.71964-1.01477-1.03761v-1.99222l-.44016-.44824h-.40754l.21778-.38413v-.67707l.65647-1.20914.53025-1.29131h.32276l.26511-.59871.13833-.90392-.23333-.88682-.8041-.18145.0628-.23881h.49045l.0797.14053v-.64129l-.80588-.18783.0897-.34111-.19609-.11529.27925-.85839v-.68087l.43931-.25831.36103.0985.26616.27106v.60482l.16689.37566.34283.0936v.59907h-.76933l.12876.48937.11186.19731v.34637l.3628.099-.26464.2695v.35933l.23309.13705.23337-.41165.11405.43344.0951.60421h.26512l-.0761.28929.38735.29767-.14986.6574h.66858v-.36392l.22049-.12965.66709.65792-.33706.092.24888.37453.41059.24142.38003.0491.39125-.27393.10967-.41685-.36235-.19741-.22823-.73878.42385-2.87211h.35864l.32966-.5815.24293.24741.97608.17637 2.16813-.60596.74658 2.83758v1.27966l.30488.83009.44014.44824h.79879l.39763-.1085.13974.14231-.3337.19621.2612.15358.23302-.23731.26391.38497-.30973-.13281.38017.67058.55161-.15052v-.48686l.94292-.78028-.52637-.14364v-.43742l-.21307-.37583-.21004-.0573-.0741-.28167.43492-.25571-.38659-.39371-.44114-.12039v-.20876h.55241l.16184.2855h.35981v.46158l.19882.0542h.68147l.26083-.35308.0597.22722.77569.42024"/><path d="m178.86477 154.47553.22822-2.39065.70098-1.68508.73374-.20023.0682-.2593 1.01568-.46187h.4809l.12226.32374 1.10852.47315.50676-.29797.15704.59685.23687.31123.35176-.13631"/><path d="m170.06891 138.92769.29887-.52718.22466.2288.54789-.32214.7941.46691.10561-.47444h-.16138v-1.18566l.5296-.14451v-1.10453l.55058.32374v.75538h1.26809l.0901-.34244 1.87277.45953-.13833-3.4748 4.80679 2.44176.32275.32869v-.42261l.27252-.0744.73211-.74557.7302.74364 1.03507.52171.50379.92515"/><path d="m172.40314 135.86669-.12384-.47074h-.23926v-.35101l-.18011-.18342.16626-1.71096-1.11666-.23243v-.79688h1.14112l1.03515.45654 2.87345-1.60929 1.11812-1.13871.7262-.27h1.80188"/><path d="m170.90138 132.12539h-.48091l.24209-1.26254-.69889-.19072v-.36103l.24455-.0668v-.28544l-.27923-.49254v-.35837l-1.24465-1.11232-.23944-.91004.88336-.89954 2.12738-1.69339h.36678l-.91289-1.05421.35455-.36109.90067.15357 2.61585-2.94813"/><path d="m156.33442 156.59523v-.28761l.30242-.53345v-.74026l.82158-.22419v-.43908l.19879.20245h.19879l.27518-.28025-.13552-.23904-.36382-1.38279v-1.53452l.70253-.54001h.31123l.0508-.19285-.12572-.47784.13339-.507 2.8003-.53623.35734.36391.23054-.23478h.7262l1.62532.14087.51151.30075v.46229h.22622l.26665-.27154h.47311l.55223-.32471h.98013l1.1226.61386.8069.74545"/><path d="m158.56504 149.93495-4.31588-1.51907-2.8365-.94629-.29815-.52592-2.48594-3.09724.42075-.42848 1.08981.29739.22505-.39696.6402.37642.11217.19787h.5667l-.47248-.12893.10555-.18617.19555-.19916.53615.14631-.13636-.24053.28846-.0787v-.21602l.2891.29443 1.6493.45689-.9337-.7161-.0822-.14496.31748.18668v-1.21564l.054.20553.35084-.20629-.29441-.90316.46109-1.16218v-.76306l.35734-.66913.24314-.0664.44527-.45345.36103.0985-.0632-.24017-.1965-.0536.18847-.33245v-.68984l.16296-.51653v-.42261h.56482l.39514.697-.29021.17064.14978.15254.0963.36593h.60576l.21926.83337h-.323v.43358l-.58798.34572.27288.16044 2.68967-.0835.40921-.41674h.51295l.16341-.28823 1.19673-.18117v-.44825l.37901-.38599.23759.0649-.4317.76147h.52422l-.10402.39535.91911.44267.85054.23209-.34392.35026h.34107l.0848.32215h.29833v-.29853h.42384l.48631-.13272-.50693.8942.41076.11209.77679-.87174 1.1554.31528h.85031v-.59703l-.13518-.23844 1.02276-.67722.79537 1.06241"/><path d="m162.20032 137.09348.37982-.66998.15407-.90304h-.56242l-.96994-.4939v-.53126h.26898l.34233-.76368-.43199-.43995.5705.15568h.75809l.22007-.73675.63855.17426.16838-.91303 1.2833.28798h1.4063l.17291-.4813v-.69262l3.36253-.77324"/><path d="m148.62282 143.84643-1.85586-2.55915-.93945-.81001.8991-1.6024.82412.48456.69745-1.23025.58789.22916v-.72783h-.32852l.50875-1.08489-.9357-.55017.45857-.46701-.20834-.12249-.29015.2955-.49153-.50058.95365-.83839.218.29801.39191.54586h.38616l.13833.14088h1.59074v.135h1.85009l1.11812 1.42045.95776.73451"/><path d="m148.7351 134.65302 1.18187-.17848-.38287-.67535.54997-.27509h-.61539l-.43665-.9708.28102-.16524h-.35019l-.0801-.30449.21864-.22268-.40184-.10965-.144-.25403h.48799v-.34089l-.12864.22692-.24813-.0677-.29327-.08-.13178-.50088h.65198v-.41179h.46108l.068.25857.70428.96231 1.1942-.32588.50028 1.15936.48413-3.11089 2.78379.62805v.69848l3.23334.78653v1.33827l1.36019.49305.41684-1.58429 1.29759 1.66527"/><path d="m152.30926 129.26989-2.42423-.52011-.37883-.66824-2.21476-.8109h1.07202l3.05467-1.78436.81944.48181 1.12864-.6579 3.59067-2.02502 1.2968.49892 1.37172.83348-.1974.34819v.22704h.46252v.56348h.86452l.26514.31696.45324-.12368.18074-1.7546h-.43803v-.43435l.20007-.35291.37629-.35144.16801.29636.33238-.3385.19123.94606 1.68295-.69262v-.61044l1.4063 1.00957-.26512.27002.36917.21705v.66338l-.1967.34696.30825.31392-.20062.35387v.79309h.30778v-.95088l.29393-.29935v-.83935l-.22765-.23185.51358-.30197v.95643h1.10308l.15562-.15848v-.73014l.11827.65577.19595-.74477.15417.58595 1.27191.16712-.14468 1.43813"/><path d="m161.40969 123.40116-.32816-.19295.13686.0374v-.33l.391-.17432v-.55201l-.16709-.17017 1.13402-.89978.43828.1196.0419-.15905h.19998l-.48877-.28738h.3735l.59939-1.64536 2.06335-.66913-1.86739-.31696.9798-.9274-.57635-1.90175-.27329.0746-.26878-1.38527.13449-.25317"/><path d="m165.78085 118.47796.80113-.22305 1.78448-.9466"/><path d="m153.31145 125.3366v-.50772l.28835-.16954v-.50253l-.23102-.13583v-1.14668l.19379-.11394-.62724-.6388v-.28031l.14627-.14896-.2908.17098-.18663-.0509v-.27045l-.16549-.29189.24356-.42961-.34723-.6125-.36516-.0996-.58164-.80357v-.26562l-.28121-.28638v-.69313l-.20581-.20959.1569-.93593"/><path d="m151.40948 147.46798h-.46685l-.16425.17903.1634.28823-.24986.17253-.12695.23341.18747.34863-.22164.0604.01.37946-.12087.0711v.32737l-.25406.13281-.2323-.23658h-.36271l-.15486.23658v.40674l-.12492.22035h-.42934v.36902l-.25268.25732h-.4483l-.0945.16669v.38947l-.53311-.45654-.81776-.31781-.12327-.21743h-.13609l-.67434-.6454-.58788.66914.62164 1.09653h.61752l.13256.40609.5222.14251.0832.316.70873.56868.74574 1.64238h-.64392l-.30158.54785h-.67652l-1.70353 1.30324h-.58686l-1.02918.76199-.2573.45384h-.51501l-.82995 1.30705v.38739l-.71468.79827-.63475.17321-.47185 1.05941h.46108l.54177-.7161h.72621l.19595.49305 1.41784-.95088.0788.29945.57826.29926.39325-.69365.36871.37549.29853-.30402h.38039l.16937.4648 1.06295.62498v.34622l1.2845.30713v-.63917l1.459.9712.95776-1.46472 1.60976.3026.64392-.71388"/><path d="m111.90912 161.03266v-.81001l.4899-.49892h.56482l.57348-.58403.252-.95775.35539.20897.19517-.34427 1.74201-.47536.37356.38044.96811-.11434v.63917l.25688.45314-.2416.42616h.87316l.64058-.1748.62032.16927 1.03455-.28231 2.01636 1.08532.48227-.85068h.80557l.25463.25933.63609-.17359.18979-.19328.46206.27169.48922-.49823.11628.44196.35984.21158.17005-.64628.17661.67126.36109-.21232-.0977.37112.50139-.13681v-.62806l.33937-.0926-.28229-.49796.34319-.20178-.19442-.19801.10296-.18164-.28797.0786-.11857-.45069.19805-.34934.36573.37246.054.20531.3694.3762v.45802l-.53777.38937.20153.11851v.63281l.39559.23258.43151.25372-.32134-.0876-.0902.0919.15811.16102-.16596.0976.14096.53572.30148-.5318.29272.0799.39274.23092v.35662l.14776.0868 2.6698.67234.12736.22465.41652.11366.97219-1.08538 1.45085 1.24512h1.09221l.79879.64748h.45645l.0992.37701.86261.6523.3275-1.24474-.2623-.46268.70304-.6162h.51872l.26801-.26413"/><path d="m147.30873 127.27064.60392-.1648v-.27542h-1.06448l-.78248-.16286-.79865-.21794-1.36133.15154v-.50635h-1.51327l-.15961.28154-.39485-.10774v-.3832l-.28514-.16766-.92003.54096-1.59734-1.62675-.89651-1.08266-.13705-.52086-.13335.50685.48789.49687v1.20759h.55482l.93945.95675-.30163.0823-.5868-.16013-.78291-.46033.13434.5106-.31891.18751-.48196-.49083-.70007.41163v-.36836l-1.80919-.73958-.23732.41862-1.03209-1.05108h-1.27807l-.17872.67929-1.32363.36119.22522.85603h-.29055l.21901 1.27162.4265.43435v.39914h.5072l.0693-.12227 1.09492.47445-.0905-.34405v-.27813l.8233.22466 1.11155-.0838v.35218l.32918-.0899 1.03101-.19191.10359.39373.72636-.41721.37019.65299-.56259.33079.60738.5658.33921-.19945 1.22846.86859-.39768.405.42675.45187.48036-.13109.80748.95287.28121-.28639.6614.38889-1.06487 1.732.15221.26847-.38036.38737.25668.26141-.45558.8036h-.31468l-.47596.68256.11733.83393-.95291.56029-.0554.0564 1.88861.49561 4.42009 1.78097 1.20401.14898"/><path d="m144.97306 126.47825v-.94501l-.19236-.1959-.047-.17854-.0476.1811-.31868-.087v-.20687l.31924-.1877-.3028-.30838.0749-.28491-.31834-.3242v-1.82962h-.63566v-1.42032l.40091-.48976v-.35693l.13857-.14112-.11077-.42101-.36574-.0998.16166-.28516-.22649-.39952h-.2982l-.31783-.32368-.48295.49184-1.02014-.56936h-1.37748l-.19236-.14895"/><path d="m138.31762 138.03551h-1.89044l-1.87866-.15345-.9455-.43995h-2.20889l-.58062.3414h-.81318l-.47822.1305-1.11939-.65817-.22924.23347-1.02878-.6049.2317-.40869-.31321-.55248.30372-.7345-.90776-.92445-.32751-1.24479v-.79491l.42312-.24878 1.32511-.92514v-.85696l.56482-.57522.46977.12818.2741-.16116h1.07741l.31123-.28399.40024.10922v-.74313l.55526-.13442"/><path d="m145.19352 150.50257h-.40922l-.46684.56935-.51029.13925-.25773-.15154h-.37316l-.29394.41142-.49638.13546-.95026.93869h-1.487l-.21946-.38713-.91019.24625-1.26798-.37565-.62246.63392-.47327-.27827.30527-.1795-.077-.29274.30486-.0832v-.35196l-.56016-.57048-.85921.5052h-.65771l-1.03743-.70951-.4852-.85586-.57529-.4472-.16298-.61944-.65182-.66382.65723-.38644-.49827-.87891.4532.12367h.23722l2.58206-1.76596-.43106-.76037 1.37628-2.09226v-.75132l-.2536-.78652.15068-.57269-.20831-.61297.62246-.22305v-.29348l.58788.19957-.49566-.65152-.36887-.62218"/><path d="m126.51391 131.99568h-.47261l-.5973-2.3896v-1.71326l-1.979-1.71393-.73773-2.58262-.59941-1.1622-.64363-1.13532-.94711-.25845-.94521-.8132-1.38325.12914-.36417-.21413h-.33898l-.13074-.49691-.17878-.10512-.35247-.62172-.59281-.16176-.1385-.2443-2.65269-.12825-.34921.20532h-1.31069l-.50407.29637-.50353-.29606-.24248.24694h-.75563l-.6167-.21192"/><path d="m89.604657 138.82006h1.785039l.474563.27903.561463-.33012 1.531653.41795.660236-.3882 1.238759.28697.289354-.29468v-2.41971l-.138011-.24345 1.2017-.36252.130414-.9629-.303861-.53599v-.60953l.550781-1.54971.905935-.24721.938392-.95019.3542.20826.357416-.36399.95981.37878.34555-.20318.34362.20204h.9592l1.52534.41677.432.43995.61094-.35922.79763.54843.25384-.44776.26352 1.00156.47231-.12889.37894.10341.39926-.40661 1.0332-.22737 1.15271.69262 1.18728.17609 1.07202-.34044.31873-.56222-.19903-.35108.65261-.30758.48058.28257 1.55971.43352h2.54748l.34581.35218.43833-.25773.7319.19972.68897-.70164-.146.55491.26406.26893.78827-1.39045 1.07596.63264h.81177l.63577-1.50047.80694.82178.164.62333 1.03417 1.06175.11715-.44522.58383-.32261"/><path d="m122.1429 122.47562 1.12279-1.14345.5895.16086v-.37375l.26128-.0713-.177-.31223.35831-.3649.96342.56647.30936-.31505.10483.39841.37294-.21928.62804.63961.46955-.12814.16808-.17118 1.06143.62411.23929.0578"/><path d="m118.07563 120.26342.35908-1.36477-.35908-.89721.12611-.47937-.36249-1.47134-.55426-.61427-.22935-.87172.83252-.71374.58686-.938h.48905l.0757.28767h.3074l.16012.60858.64681.00024.85585.60597.54202-.24489.31586.32167 1.27357-.76991.52063.35382"/><path d="m81.849109 115.42401h.28528l1.177801-1.3738.770256.58521.242415-1.18185.965393.98316.204604.59576h.991328v-.95674l.108687-.41309.451054.45935.523052-.38412"/></g></g><g fill="#eee" stroke-width=".1"><path d="m29.049625 150.61012v72.13316h-.08508v34.65931h34.125119v-34.64685h15.222757v-72.14562z"/><path d="m78.299019 175.73807h48.194786v47.058777h-48.194786z"/><path d="m63.136681 222.74709h36.261829v34.651844h-36.261829z"/><path d="m99.430725 222.73059h27.072573v34.684837h-27.072573z"/><path d="m126.52249 232.00778h24.069233v25.427902h-24.069233z"/><path d="m126.48963 202.541v29.45546h24.15715v25.4134h38.27848v-54.76926z"/><path d="m189.03275 202.74257h36.201012v54.625397h-36.201012z"/><path d="m225.25279 202.75679h43.273781v54.596989h-43.273781z"/></g><path d="m97.374724 181.14817-1.049215.61692-1.935002-.83402v1.30251l-1.065793 1.08541-.605767 1.06852-.289501 1.10229-.767371.43417v2.82207l.46895 1.60642-.602913 1.06349v2.14932l1.02923 2.73524v1.43272l.895266.95515v.86835l-.04265 1.3025-.499951.88185-.352682 1.85337-.267009.471v1.91691l2.22807 2.69182-.64463 2.45006 3.799387 1.19691.852622.86834h1.023173l2.771052 2.90891 2.3874 1.08539 2.17422.65126 1.54915-.42274 2.37297-.18513 1.15106 1.17225h2.13155l1.49214-2.17083.52211-2.76595.40776-.71925-1.37242-2.59636.49352-1.87566.89731-.91382v-1.72342l-1.42097-2.02621.29003-1.10226-.44327-.78193 1.5117-2.6665-.87613-2.1112h-.5426l-1.77857-6.84611-4.06961-3.5612-1.59771-1.4736-3.91885-.6447-2.39704-1.40942 1.76989 1.8025-2.66954-.72849-1.164814-1.66011h-1.085219z" fill="#ece3b4" stroke-width=".048751"/><g fill="#b6f2dc"><path d="m68.676521 155.31165-1.398388.38172-.593194 1.04645-.514497 1.95458.566637 2.15396 1.308372.76893 1.182947-.32261 2.670852-3.26451-.376774-1.4702-1.496265-.87963zm2.020599 15.52663 1.16278 2.16248 1.7181-.46886zm-1.850906 12.95636.217898.82851v.95178l.540074.95272-.892743 1.57492-1.222787.33362-.364477-.21391-1.072275.63067.320701.56556-.522859.53197.371853.65523-1.560209.91715-.531712.54152-.824374.48489.203142.77293-.302993.53499.742233.75587-1.083588 4.11812-1.797785 3.17133-1.156385-1.17719.627626 1.10705-.352671 1.34048 1.156876 2.04126-.517937 1.96864 1.120971 1.14157.238063.90468 1.072277 1.09199.65222 1.15065 3.234041.88263.440717-2.85328.535154-.86558-.278892-10.30048.908484-3.45286 1.308373-2.23261 1.099822-.30009v-1.20218l.487933-.49691-1.259185-1.28238.865689-1.25031v-1.87546l-1.322145-1.34646zm-12.484141 16.01501-.282337.52847.984726.57856-.290696 1.10305h.545485v-1.23529zm-3.097305 10.67367-.942912.96024-.303975 1.15516.533185.54299-.732394.43079-.635493-.64717.249869.94923-2.00732 1.18017.369885 1.40559h1.132283l.715177-1.26183h.70977l.168219.63969 1.448066.39521 2.548866-2.59577.06689-.13576.286267-1.03138-1.997483-.54502-.589752.16082-.203141-.77194zm-15.714247 26.33199-1.402322.38272-.203143.93171h.346278v.54501l-.605493.1653v.57205l.599589 2.27771-.767316.78192-.996529.27151-.163792.62315 1.459375.85809-.453502.46234h-.740755l.732884 1.2924v.74237l-.872084-.23795.409237.72184.449076.79246v.71131l-1.129333.30804-1.533156.90168-.54745 2.08035 1.369856.37367.832244.48991.304467.53647 1.374281-.80849 1.063425.62516.796827-.812h.810601l-.33447-1.27033.342833-1.30243 1.129332 1.14963h.499246l.870612-1.53582-.689602.18833-.241508-.91868.575978-1.01586 2.762834-.75389.643364.65571h1.146548l-1.177045-2.07636.929144-.94674-.932586-.94973-.456456-3.47841-.818472-.83352-2.541981-1.49475-1.308863.35714zm10.887532 8.78621-.614345.47585.346767.20388zm.422517.9748-.469245.12823.156906.59709.507609.13876-.05756-.10168z" stroke-width=".050909"/><path d="m81.909373 231.5509-.84061.22938-.518207.91409h-1.460386l-1.001398-.5888-.880678.51781-.849626-.23182-1.437629.84528-.502596 1.91023 1.115096 1.96694-1.256838 1.28-.478305.28122v1.33979l-1.509588 1.53738.486865 1.85045-1.952757 1.9887.490399.86503.824151.83933.375455 1.427h-.562085l-.30914 1.17498.316497 1.20289.575821-.15713v1.50149l1.55373-.42399.82712 1.45897.849062-.23169.829474.84473 3.036152-.82849 2.100676.57322.547464-.96568.90602.92269.942591-.25721.746899-1.31747.105434-.40075h.738691l.882752-.899 2.134149-.58237.662821-1.16915.794303-.46705.573221-1.01113.323165.32911.607341-2.30834-.790645-3.00502.307424-1.16845.794729-.80936-.188488-.7164h-.938341l.850859-.50028-.444831-.78465.359407-.63397-.754538-1.33095-.730286.74373.288079-1.0949-1.047256-1.06655-1.820941-1.07066-.289106-1.09883-1.647548-.96871h-.512079l-1.708238-.46614-.674965.18418z" stroke-width=".041868"/><path d="m117.43462 239.08907 1.22198 2.75468 1.1506 2.66957-1.81575 3.99422-1.01682 1.25743-2.32418-.6164-4.13992-.24655-2.73573-1.25743-.74-1.3053v-3.23136l-.19807-.75278.57492-2.05796 2.43311-2.92171.9563-1.04785 1.34967-.36831 1.12986-.30832 1.56355.92317z" stroke-width=".039153"/><path d="m138.12053 242.50401-.74363.43724-.15661.59526-.003 1.82958.0201 3.14827.30862.54439.49319.13461.41307.72862 1.07127.29231.63192.64357.993-.27097.32664-.33267 1.38119-.8121.3029-1.2753-.28624-.50486.35237-.62153-.92931-1.26548-.78475-.4614-.84625-1.49274-.93846-.49905-.64315-.17552z" stroke-width=".032464"/></g><path d="m160.21158 214.00188-.59246.24127h-3.71149l-1.86031 1.22896-1.37779 2.43043v3.13685l1.17711 2.26557 2.0213 3.56561v2.011l1.14526 1.20629 2.11116.34036.7033 1.24007 1.51828-.4141.52441.92464.32023 3.65981v2.20692l1.75474 1.78704 1.55361.91306.226.85974.56235.15331 1.11387-.65494.83198.84733v.49139l1.01175.27637.60162-.16439h1.38216l3.30093 3.76335 1.17754-1.19921-.67885-1.19699v-2.15537l-.39267-1.4929.9655-.26347.64264-2.44196 1.36253-.19416 1.20414-.32881 1.77698-.28169.12523-1.35382-1.03356-1.82304v-1.04546l1.02703-1.28675-1.69804-1.72926-1.34289-3.41857h-.63175l-1.43362-.47851-1.60685.43853-2.80354-1.16633-.75042-2.09096-1.88998-.86375-.4411.12042-1.16357-.68425-.96725-.98549v-1.68883l-2.56709-1.68929zm-20.91069 6.48611-1.00519.59096h-.69501l.2779.49007-.26395.46564.89832.91485 1.03007 2.55747 1.02963.60516.96332-.5665 1.83414.50074-.54056-2.66545-1.86729-1.0979-.83025-1.4649z" fill="#ece3b4" stroke-width=".045156"/><path d="m205.7241 206.74583-.60846.43609.49594.59684.87883-.39044v-.64249l-.33808.34431zm-1.5545 1.90461-.90175.91833.27436.48325.42522.25001-.15883.60191-.65129.66326.3137.31895.56713 1.00051v.92745l-1.03669.28296v.86458l-.1658.6288.29079 1.10441-.13693.51928-.61892.36409.22107.38996h.56367l.42074.74184-.3595.63437.13742.52283-1.05061-.28653-.34755.61309.21361.81235.6941-.18967.0698.26522 1.2015.32808-.28382-1.07909.37195-.65616.48099.13082 2.0883-2.12671-.49346-.50253.61993-1.09379-.16333-.62067.58805-.34584v-.68202l-.81111.47665-.23851-.90818-.64778-.65923-.0343-1.86962 1.22987-.72311-.0713-.2723-.43917.2581-.41874-.24642-.37941.22309.17777-.67644-.9132.24899-.71104-.72415zm.53674 12.83032.30673.54157-.83103 1.46599 1.01975 1.03803-1.44897.85239.88832 1.56689-.76134.77533.58605.34433.62391-.63487 1.25078-.34127.14987.57047h.64132l.11103.42141.56466.33161.81807.48122-1.23882.98782.15984.60696-.54622.55578h.99185l.81707.22311.88781-.24238 1.19105.32505h.72844l.13196-.50201h1.43401.80964l.97442.2657.6697-1.18151-1.77957-.23224-.55418-.56491.31817-.56134-.32066-.56539.25443-.96752-.75933.44673-.64779-1.14194-.66324-.67596.2186-.83164-.71901-.42289-1.94289 1.10544-.72448.42596-.15535-.59076.49644-.87575-.41528-.26319-1.3872.37883-.39834-.40569-.81959-.83517.21161-.80524-.41774-.11411v-.77683l-.2878.0787zm-2.89191 4.17434-.24748.10345-.4058-.0801.33809.22921.47802.39502.47947-.13085-.51384-.0294zm-2.51203 2.22612-1.63815.0618.72895 1.28547-.78075.21298v.69372l.65329.1785.49543-.73427 1.03667-.0918zm4.07849.69977-.31569.19524.87884.58518zm1.75068 3.38127-.37394.6597-1.16862-.31946-.56116.33011-.53824.94978.51585.90971-.603 1.06438 1.04615.6151.22208.84329 1.37922-.37627-.3361-.19777v-.56033l.89628-.24441.96747-.98526v-.37019l.36347-.37017.78673.21502-.46208.81386.69262.70537-.42077 1.59935.47604.83973.51582-.52483.485.85544-.20915.36868-.41524 1.57905-.44765.78953-.46506.27384-.31767-.32353-.75435-.20586-.61344-.16735h-.83354l-.2873.50709-.92962.25354-.74986-.76315-.53428.54409.22955.87269.86886-.2368.44763.26316.49295-.29005v.4934l.84548.86155-.65825.67086.53029-.14502.44265.7814v.59332h-.71204l-.89127-.52382-.25244.9594-.25146.95535.37293-.37979.35305.0965-.15136.57555.14986.56947v.77076l-.89477.24442-.1195.45434-.23552.13843.39884 1.51671.36298-1.38032.78921.80377h.3565l.45313.26621.44961-.79361.58856-.34581.72098.18355 1.316.33114.23005.87524.42573-.11613.34455.35039.3336-.33976.64184.37729.33957-.19979.67767-.39857.49842.29259-.12048.45739h-.27138l.22656.86053h2.50306l-.49793-.87778h-.68216l.1967-.34633-.21909-.3864-.13493-.51267-.56963-.33521.10953-.41832.61346.36053.11999-.45587v-.71092l-.17776-.67597-.85595-.50301h.7748l.33209-.58618.47802-.48632.51088.30021-.25147.25657.44963.45791.58704 1.03599.75187.20485.52133-.53092-.51486-.90822-.80017-.81436-.85591-.87218.73193-.68051-.37642-1.43049v-1.07351l.60698-.16582v-1.46244l-1.10989-1.13027-.75385.20535-.38887-.22869v-.4062l-.41725-.73577.61345-.62525-.92216-1.62622-.13195-.50149-.49942-.29363-.43869-.44673.19021-.72311-.29775.30324-1.07799-.63386.1892-.33367-.32364-.19016-.12299.21753h-.84299l-.73442-.20079v-.45893l-1.63917.26523-.44564-.26218-.21162.37322-.63984.17444zm11.67927 3.19362 1.05909.87168.16729.3651.87734-.23932-.5268-.92849zm-.41377 13.29987.13094.49848.30972.0842.22058-.38894zm-16.01318.88182-.46854.25814.40083.10902-.15785.22969.40582.38995-.0861.65262.33958.1998-.3889.68507.69859 1.01011-.29774-1.30523.65824.38691z" fill="#b6f2dc" stroke-width=".051535"/><path d="m235.68918 207.16118-.471.76994v.70648.91823l1.35831 1.55391v1.34845l.23957.42244.37902 1.44208 1.30162 1.32556.13384.50826 2.03309 2.07055-.4485.79074.3305.58266-.32181.0879.10314.39381h-.62781l.212.80585h.33152l.66357-.67579.68707.40369.34686 1.31828-1.30313 1.32712.0598.2289h.45157l-.0843.32047.56855.33451-.12667.22371h-.51289l.57878.58941-.11852.44949.33002.58214h.4485l.47301.27781-.51032.51971.57316 2.1777.58645.59775.48119-.84902.25339-.25803.52973-.31164.15682.59464-.34124.6014.36628 1.39265.34018.34595.48071-.48953h.31825l.98845-.26948.54658.96347.26872 1.02279.44391.26116.21761.3834-.65897.38758.73714.43334.12055.4573-.30853.3142.32897.58061v.56235l-.72334.73614-.189.71949.65334-.38446-.12567.22214.57982.34127.44798-.26322.5711-1.0072-.23139-.87968v-2.03411l-.46588-.47396.3872-1.4707-.90161-.91822-1.179-1.2007v-1.08311l-.46589-.47445.62629-.63784-.0853-.32462.58697-.34544-.32387-1.23087v-.71529l.47099-.47968.78821.21486.22425.39539.75807-.44584.56089.3293.11904-.45314.52104.14204v-.48798l-.18133-.31995.44798-.45625-.87658.23933-.32743-.19249h-.61301l.29066.51242-.38517.22631-.57673.33919-.62936-.17168-.63494.17323-1.01247-.59514-.88526-.2419-.54506-.31995v-.94423l-.81786-.8329.44341-.78191-.32131-1.22202.19821-.34959.71567-.72887-.0853-.3241.53126-.54104-.26257-.99834.47253-.48122v-.48433l.25949-.9874-.45464.26739-.11545.43857-2.4581.67059-1.58104.4318-.802-.21903v-1.32506l-.32234-.56859.1885-.71584.61861-.16857h.47099v-.72104l.47862-.28142 1.05947-.62273 1.01657-.27782.71364.41985v-.48903l-.43368-.4417h-.84339v-.47079l-.16859-.29811-.86124-.87661-.25033.14725v.72675l-.36014-.21172-.2835.50046-.38518-.67994-.87046.5119h-.42398l-.19716-.75017h-.66921l.34892 1.32713-.14559.55351.52358.92343-.3535.0968-.61964-.63156h-.91283l-.38263.38965-.28709-.50617-.23956-.90939-.89807-1.5841zm.17366 29.1742.36065.63625-.35962.36623-.78157.79597.65692.386.45159.79702-.48531.85628.44085.44898.49961-.50931.41426.73093.75604-.44478.34277-1.30165-.60635-2.30358-.45311-.32258-.13487.51247zm12.54808 1.41036-.0732.12796.15378.58426-.21764.0598-.0872.33137.32437.0884.33511-.74186v-.0587zm-1.91101 2.91019-.23142.51815.23142.11757zm-.92512.82405-.41584.0942.30039.37664.23139.61233.20792-.56499zm-.87814 1.38903-1.46249.206-1.03086.60608-.38877-.22888-.23242.40939-.35348.62325h.91642l.65337-.66538 1.06148.28977.48225-.28406-.15531-.27468.27944-.28456.53075.14462zm17.16345 3.43043-1.19332 1.21525.61302.6243-.39233.39953-.0788.13839-.21763.0598.10377.39382.24929.0681.10778.41103 1.15142-.67685.85104-.50046h.64467l.44801.12224v-.38808l-.4526-.26638v-.21639h-.87404l-.57161-1.00928-.10576.1077zm-18.70156 3.06572-.81937.48173.0843.1488.37802.66694-.34483.35115.18392.69765.29782.0817.28656.50516h-.37188l-.0899.3418.39182.69192-.43014.75848-.1701-.1h-.54403v.4604l.60533-.1654.37904.66795.55937.32933.26155-.0712-.18237-.32203.37596-.63261.63854-.0625-.24622-.93644.13075-.3829-.28043-.29445-.0629-.23825v-.91563l.31059-.31631v-.73249l-1.18717-.42553zm14.05298.0165-.0757.28877h-.72382l-.69015.40526-.53995-.14723v.33294.47394l-.33204.33815-.20688.78609v.82404l.53126-.54105h.41632l.67584-.18467.54045.14773-.11696-.44477.74479.20338.62475-.63624.23702-.90002.4577-.46612-.69983-.24969z" fill="#b6f2dc" stroke-width=".052872"/><g fill="#eee" stroke-width=".053"><path d="m191.9128 97.748085 1.18753 2.759525v2.28358l.48834 1.82108 2.25878 1.30431.42943-.74414-1.14619-.66198-1.33376-2.31045-.15297-.56999v-1.19114l-.3514-1.311035zm-47.19402 14.301455-.30282.52503h-.53795v.48938h-.79375l.03152.03152-.75809.43821v-.26148h-.35088-.39171l-.98806-.2651h-1.55494l-.29869.29869.70383.18862 1.34773.36122 1.3255.35502-.81804.47232-.90434.90485-.57102.3297.42633.42633.24133-.41755 1.35805-.78393.87643-.23461.19121.71365.14469-.54105.1602-.59686.31522.31522.22118.82631.32814.18965.50643-.13591-.1018-.38085.12661-.47336.1788-.66766.21704-.81028v-1.1927zm-1.14876 4.55217-.60823.16278-.78962.21188.26355.45682.49661-.13333.23823.41238.55604-.14883.18241.68058.36846-.21239.22686.39326.45475-.45475.28112.28112v-.76068l-.94878-.47232zm5.61929.02998-.82217.22014-.54105.14521.28267.48937-.78703-.21084-.54312-.14521-.5948.34314-.36793.0987-.09406.35243-.16433.61237.20154.3483.18087-.67542.51935.30024.19172-.33227.38395.10283h.45217v.87023l.28577-.49454.37104-.09974.39222-.1049.70694.18965.44028-.4408.67076.38706.35243-.61082v-1.09915l-.68316-.1354-.43873.11731zm-58.436741 41.62123-.904337.0217-.660425.66043.256315.95549 1.043864.60307 1.326017.35502-.136425.50953-1.138432.30489.280086.48524 1.414384-.37931 2.351794 1.35806-.660941-1.14515-.33228-1.24075-.735355-1.27331zm21.701001 6.643-.76119.20361v.72502l-.54364.31368-.16381.61029.55293.55294.01086-.01033.36638.21135.37259.37259.75654-.20257 1.16479-.31213.85111.85111.31523-.08423-.3421-.59273-.2403-.89762-.59841-.3452-.97462.26097-.25838-.44752.09353-.84181zm-.91571 2.40554-.0031.00362.00879.00207zm-.0031.00362-.68264-.18345-1.00046-.26769v-.60874l-.68213-.68265-1.20457-.32246v.85679l.4594.45941.83871.22479.41754 1.55701.19224-.1111 1.01079-.27079z"/><path d="m61.558862 109.90862v1.07576.86528l.253079.9445.245973.91799-.853366-.85337-.312354.54102v.88201l.540927.93691-.726926-1.25907-.304213-.52691h-1.041413l-.686615.39642-.647782-.17357-.97839.56487-.753975-.75398-.4557.2631.417317.72282-.257135.95963-.45067.78059h-.583632l-.301868.17428v-.91578l-.585728-.58573-.374177-.37418-.886775-.23761-.794482-.21288-.472679.81871-.898742.51888-.601205-.16109v1.05241l-.280019-1.04505v-.66213h-.791163l.31048-.53777.710982.41048.497262.2871.400277-.6933.691819-.39942.900377-.24126 1.19524.69007 1.15707.31004.298617-.51722-.740842-.19851-.289624-.28962h-.594758l.827592-.47781h1.019909l.958144-.25674.444048-.25637.157197.58666.349863-.60598.31559.31559.377637-.65408.135477.5056.734584-.42411 1.123741.3011.567309.15201-.602813-.60281.340524-.58981.282813-.48985-.426651-.42665.431374-.74716z" opacity=".802575"/></g></g><g stroke-width=".263132" transform="translate(119.07435 -81.108782)"><path d="m82.882477 161.1373h64.730553v9.472763h-64.730553z" fill="#fff" opacity=".75"/><path d="m83.935005 162.18983h62.625492v2.105058h-62.625492z"/><text font-family="sans-serif" font-size="6.31518" text-anchor="middle" x="115.27242" y="169.55754">30km</text></g><path d="m131.56642 122.87658v.97224l.88969.68803" fill="none" stroke="#000" stroke-linecap="round" stroke-linejoin="round" stroke-width=".053"/></g></svg>